<?xml version="1.0"?>
<svg xmlns:rdf="http://www.w3.org/1999/02/22-rdf-syntax-ns#" xmlns="http://www.w3.org/2000/svg" xmlns:cc="http://web.resource.org/cc/" xmlns:dc="http://purl.org/dc/elements/1.1/" id="Layer_1" xml:space="preserve" height="600.27" viewBox="0 0 407.826 600.266" width="407.83" version="1.0">
<g id="g5" stroke="#000" stroke-width=".036" stroke-miterlimit="10" fill-rule="evenodd">
	<path id="path7" d="m43.028 141.9l-1.584 208.51c-3.888 3.89-5.94 7.27-6.696 10.55-0.72 3.16 0.18 6.04 2.556 8.64-2.592 2.52-3.78 4.75-3.852 6.69-0.036 1.91 1.044 3.53 3.528 4.86l-1.908 117.87c-2.34 1.29-3.6 2.8-4.176 4.14-0.576 1.29-0.252 2.8 0.972 4.14-2.268 2.01-3.348 3.99-3.528 6.08-0.144 2.05 0.612 4.18 2.556 6.37-3.528 4.97-6.624 8.68-9.576 11.52-2.952 2.77-5.616 4.43-7.992 5.11-3.78 0.15-6.336 0.87-7.668 2.56-1.368 1.55-1.296 4.72-0.612 7.02 0.612 2.2 1.944 4.32 4.14 6.37l-0.324 16.31c-4.032 0.97-6.696 2.38-7.992 3.82-1.44 1.47-0.792 3.13 0 5.11 0.756 1.94 2.196 4.17 4.464 6.69l35.46 15.99c21.276-0.29 38.52-0.72 52.704-1.3 14.08-0.61 24.55-1.22 31.28-2.23 6.52-1.12 9.18-2.45 8-4.14 4.32-0.94 11.3-1.98 21.09-3.53 9.83-1.51 28.95-3.78 37.37-5.4 8.24-1.65 9.97-2.88 12.13-4.79 2.09-1.98 2.34-4.57 0.61-7.38 4.97-0.18 8.46-0.68 10.88-1.9 2.3-1.23 3.42-2.88 3.2-5.12 4.57 1.37 8.24 2.16 11.16 2.24 2.77-0.08 4.43-0.58 6.08-1.91 1.62-1.33 3.14-3.21 4.14-5.76 1.77 1.87 4.11 2.19 7.02 0.97 2.92-1.3 8.65-5.04 10.23-8.32 1.4-3.42 0.11-8.82-1.26-11.48-1.44-2.7-4.61-3.64-7.02-4.46-2.59-0.94-5.29-0.04-7.67-0.65-2.38-0.76-4.46-2.05-6.41-3.21-1.98-1.26-4.03-2.3-5.76-3.67 5.47-10.37 11.95-22.68 19.84-37.37 7.74-14.9 15.98-31.06 26.82-50.43 10.87-19.44 21.96-37.69 37.98-64.91 15.95-27.36 41.94-70.52 57.17-97.42 15.04-26.92 26.71-48.34 32.9-62.6 5.9-14.22 4.93-14.9 3.2-22.18-1.72-7.52-7.63-17.02-13.42-21.7-5.98-4.68-14.01-5.44-21.71-5.76-7.85-0.44-14.15-0.51-24.59 3.81-10.55 4.32-25.85 17.28-37.69 22.07-11.85 4.68-21.89 7.02-32.91 6.05-11.23-1.08-24.37-5.37-33.19-12.46-8.67-7.23-13.39-15.87-18.86-30.35-5.62-14.65-8.46-40.89-14.37-56.515-6.12-15.66-13.75-27.108-21.38-36.72-7.7-9.648-14.98-15.66-24.3-21.096-9.47-5.616-22-9.612-31.61-12.132-9.72-2.484-18.11-3.492-25.85-2.88 1.41-1.656 3.06-3.384 5.12-4.788 1.98-1.44 4.32-2.952 7.02-4.14 1.22-1.08 1.83-2.16 2.23-3.528 0.29-1.404 0.18-2.844-0.33-4.464-4.89-2.412-11.66-4.32-20.44-5.724-9.003-1.512-19.803-3.348-32.259-2.88-12.565 0.431-26.137 2.195-41.833 5.435-1.836 3.168-2.592 5.724-2.556 7.956 0.072 2.16 0.936 3.816 2.88 5.112 3.564 1.044 6.336 2.34 8.316 4.176 1.908 1.728 3.168 3.852 3.492 6.372l-1.584 98.996 6.372 13.76zm51.444-3.78c6.048-2.24 11.488-3.14 16.598-2.56 4.97 0.43 8.57 1.01 13.71 5.76 5.19 4.82 11.06 13.03 16.92 22.68 5.69 9.36 10.48 24.16 17.28 33.84 6.74 9.65 13.14 16.49 22.97 23.98 9.79 7.38 22.11 15.8 35.14 20.41 12.89 4.5 29.27 6.05 41.51 6.73 12.02 0.54 19.4-0.65 30.34-2.88 10.88-2.3 22.97-6.34 34.49-10.55 11.38-4.21 22.47-9.11 33.55-14.69-15.66 19.01-31.93 38.78-49.5 60.12-17.67 21.35-37.29 45.33-55.26 67.07-18.03 21.67-34.3 42.19-51.73 61.96-17.6 19.73-36.18 38.45-52.38 55.33-16.16 16.78-30.71 31.25-44.06 44.39-0.15-1.19-0.58-2.05-1.3-2.88-0.79-0.87-1.8-1.41-3.165-1.91 0.895-1.69 1.155-2.84 0.615-3.85-0.579-1.05-1.803-1.55-3.819-1.91l0.936-120.38c2.34-1.95 3.563-3.96 3.523-5.76-0.1-1.84-1.327-3.75-3.811-5.44 2.232-1.73 3.021-3.85 2.232-6.37-0.864-2.59-3.168-5.58-7.056-8.97l-0.937-208.76c1.044-1.76 2.124-3.56 3.204-5.36z"/>
	<path id="path9" d="m47.276 153.6c0.936-1.44 1.836-1.88 2.556-1.3 0.684 0.5 1.332-0.68 1.8 4.61 0.432 5.25 1.008 12.96 1.044 26.85-0.036 13.9-0.936 34.49-1.044 55.8-0.216 21.32 0 54 0.252 70.85 0.288 16.63 1.224 22.03 1.296 28.41-0.216 6.22-0.828 7.09-1.548 8.71-0.684 1.4-1.728 0.65-2.304 0.25-0.684-0.54-1.152-1.3-1.548-2.81 0.468 1.98 0.972 3.39 1.8 4.36 0.756 0.82 1.836 1.8 2.808 1.26 0.9-0.54 2.268 1.26 2.556-4.32 0.216-5.8-1.08-16.78-1.26-29.45-0.396-12.74-0.468-29.38-0.504-46.3 0.108-16.99 0.324-38.84 0.504-55-0.18-16.31-0.396-31.29-0.504-41.73 0-10.44 0.684-16.23 0.504-20.45-0.36-4.32-1.404-3.78-2.304-4.6-1.008-0.83-2.952-0.83-3.6 0-0.684 0.79-0.9 2.41-0.504 4.86z"/>
	<path id="path11" d="m59.048 148.81c0.936-1.44 1.836-1.98 2.556-1.33 0.684 0.5 1.332-0.72 1.8 4.78 0.468 5.48 0.936 13.65 1.008 28.12-0.036 14.51-0.972 36.04-1.008 58.32-0.216 22.25 0 56.48 0.252 74.09 0.288 17.39 1.224 23.07 1.296 29.7-0.216 6.37-0.828 7.56-1.548 9.11-0.684 1.47-1.728 0.68-2.304 0.25-0.684-0.4-1.152-1.51-1.548-2.95 0.468 1.98 0.972 3.63 1.8 4.57 0.756 0.97 1.836 1.83 2.808 1.33 0.9-0.61 2.268 1.3 2.556-4.57 0.216-6.05-1.08-17.5-1.26-30.75-0.396-13.39-0.468-30.63-0.504-48.42 0.108-17.89 0.324-40.53 0.504-57.52-0.18-17-0.396-32.69-0.504-43.6 0-10.98 0.684-16.99 0.504-21.38-0.36-4.4-1.404-4.11-2.304-4.83-1.008-0.9-2.952-0.9-3.6 0-0.684 0.79-0.9 2.49-0.504 5.08z"/>
	<path id="path13" d="m72.116 151.18c0.936-1.44 1.836-1.87 2.556-1.29 0.72 0.47 1.26-0.61 1.764 4.68 0.432 5.29 1.008 13.17 1.044 27.25-0.036 14.08-0.936 34.92-1.044 56.56-0.072 21.6-0.108 54.75 0.288 71.85 0.252 16.81 1.188 22.43 1.26 28.8-0.216 6.23-0.828 7.27-1.548 8.82-0.72 1.51-1.656 0.58-2.268 0.25-0.684-0.46-1.152-1.36-1.548-2.84 0.468 1.94 0.972 3.46 1.8 4.39 0.756 0.9 1.836 1.8 2.808 1.3 0.9-0.51 2.268 1.22 2.556-4.39 0.18-5.8-1.044-17-1.296-29.85-0.396-13.03-0.468-29.7-0.504-46.94 0.108-17.39 0.324-39.28 0.504-55.8-0.18-16.6-0.396-31.61-0.504-42.27 0-10.62 0.684-16.52 0.504-20.77-0.36-4.32-1.404-3.89-2.304-4.68-1.044-0.83-2.88-0.83-3.564 0-0.684 0.87-0.9 2.41-0.504 4.93z"/>
	<path id="path15" d="m82.34 158.71c0.936-1.33 1.836-1.73 2.556-1.19 0.684 0.5 1.332-0.65 1.8 4.32 0.468 4.93 0.936 12.13 1.008 25.2-0.036 13.07-0.972 32.33-1.008 52.34-0.216 19.95 0 50.73 0.252 66.5 0.252 15.44 1.188 20.8 1.26 26.64-0.108 5.72-0.936 6.73-1.512 8.17-0.684 1.33-1.728 0.61-2.304 0.21-0.684-0.46-1.152-1.29-1.548-2.62 0.468 1.87 0.972 3.13 1.8 4.06 0.756 0.83 1.836 1.66 2.808 1.23 0.9-0.54 2.268 1.19 2.556-4.11 0.216-5.43-1.08-15.66-1.26-27.61-0.36-12.06-0.54-27.47-0.54-43.45 0.036-16.02 0.396-36.36 0.54-51.59-0.144-15.33-0.504-29.3-0.54-39.13 0.036-9.79 0.72-15.37 0.54-19.22-0.36-3.89-1.404-3.71-2.304-4.32-1.008-0.8-2.952-0.8-3.6 0-0.684 0.75-0.9 2.23-0.504 4.57z"/>
	<polygon id="polygon17" points="110.56 48.333 112.94 48.333 112.94 529.26 110.56 529.26"/>
	<polygon id="polygon19" points="122.52 49.52 124.89 49.52 124.89 518.49 122.52 518.49"/>
	<polygon id="polygon21" points="134.47 54.02 136.84 54.02 136.84 505.03 134.47 505.03"/>
	<polygon id="polygon23" points="146.42 60.284 148.83 60.284 148.83 490.99 146.42 490.99"/>
	<polygon id="polygon25" points="158.41 70.472 160.78 70.472 160.78 477.2 158.41 477.2"/>
	<polygon id="polygon27" points="170.36 86.312 172.74 86.312 172.74 463.45 170.36 463.45"/>
	<polygon id="polygon29" points="182.31 107.55 184.69 107.55 184.69 447.9 182.31 447.9"/>
	<polygon id="polygon31" points="194.26 134.8 196.64 134.8 196.64 434.14 194.26 434.14"/>
	<polygon id="polygon33" points="206.22 162.92 208.63 162.92 208.63 420.07 206.22 420.07"/>
	<polygon id="polygon35" points="218.2 182.94 220.58 182.94 220.58 405.7 218.2 405.7"/>
	<polygon id="polygon37" points="230.16 197.91 232.53 197.91 232.53 391.95 230.16 391.95"/>
	<polygon id="polygon39" points="242.11 205.98 244.48 205.98 244.48 376.69 242.11 376.69"/>
	<polygon id="polygon41" points="254.06 211.38 256.44 211.38 256.44 363.22 254.06 363.22"/>
	<polygon id="polygon43" points="266.01 214.36 268.42 214.36 268.42 349.18 266.01 349.18"/>
	<polygon id="polygon45" points="278 213.75 280.38 213.75 280.38 335.11 278 335.11"/>
	<polygon id="polygon47" points="289.95 211.95 292.33 211.95 292.33 320.17 289.95 320.17"/>
	<polygon id="polygon49" points="301.9 208.06 304.28 208.06 304.28 304.9 301.9 304.9"/>
	<polygon id="polygon51" points="313.86 202.99 316.23 202.99 316.23 290.25 313.86 290.25"/>
	<polygon id="polygon53" points="325.81 196.72 328.22 196.72 328.22 276.5 325.81 276.5"/>
	<polygon id="polygon55" points="337.8 191.04 340.17 191.04 340.17 262.14 337.8 262.14"/>
</g>
<metadata><rdf:RDF><cc:Work><dc:format>image/svg+xml</dc:format><dc:type rdf:resource="http://purl.org/dc/dcmitype/StillImage"/><cc:license rdf:resource="http://creativecommons.org/licenses/publicdomain/"/><dc:publisher><cc:Agent rdf:about="http://openclipart.org/"><dc:title>Openclipart</dc:title></cc:Agent></dc:publisher></cc:Work><cc:License rdf:about="http://creativecommons.org/licenses/publicdomain/"><cc:permits rdf:resource="http://creativecommons.org/ns#Reproduction"/><cc:permits rdf:resource="http://creativecommons.org/ns#Distribution"/><cc:permits rdf:resource="http://creativecommons.org/ns#DerivativeWorks"/></cc:License></rdf:RDF></metadata></svg>
