<?xml version="1.0"?>
<svg width="512" height="512" viewBox="0 0 512 512" xmlns="http://www.w3.org/2000/svg" xmlns:svg="http://www.w3.org/2000/svg" version="1.0">
 <metadata>image/svg+xmlOpenclipartHarp2006-10-17T10:43:34clip art, clipart, colouring book, harp, instrument, music,http://openclipart.org/detail/8466/harp-by-gerald_g-8466Gerald_Gclip artclipartcolouring bookharpinstrumentmusic</metadata>
 <g class="layer">
  <title>Layer 1</title>
  <g id="g3930" stroke="#000" stroke-miterlimit="10" stroke-width="0.04">
   <path d="m101.98,121.95l-1.66,176.4c-3.85,3.27 -6.17,6.18 -6.85,8.93c-0.74,2.68 0.18,5.11 2.62,7.29c-2.66,2.18 -3.85,4 -3.94,5.66c-0.06,1.62 1.1,2.96 3.61,4.12l-1.96,99.7c-2.26,1.12 -3.75,2.38 -4.25,3.52c-0.52,1.11 -0.27,2.37 0.98,3.51c-2.26,1.69 -3.42,3.34 -3.61,5.14c-0.18,1.74 0.74,3.54 2.63,5.39c-3.58,4.14 -6.85,7.36 -9.82,9.74c-3.02,2.33 -5.74,3.77 -8.16,4.32c-3.85,0.11 -6.42,0.79 -7.82,2.15c-1.47,1.37 -1.29,4 -0.65,5.94c0.61,1.9 1.99,3.67 4.25,5.42l-0.33,13.76c-4.13,0.89 -6.85,1.97 -8.16,3.27c-1.41,1.19 -0.86,2.63 0,4.32c0.73,1.69 2.29,3.49 4.55,5.67l36.26,13.5c21.79,-0.25 39.41,-0.58 53.9,-1.08c14.4,-0.48 25.1,-1.04 31.98,-1.88c6.73,-0.91 9.33,-2.04 8.16,-3.51c4.47,-0.71 11.5,-1.77 21.55,-2.99c10.06,-1.31 29.6,-3.14 38.22,-4.58c8.35,-1.44 10.24,-2.37 12.42,-4.07c2.17,-1.7 2.39,-3.79 0.64,-6.2c5.02,-0.06 8.69,-0.69 11.13,-1.62c2.39,-1.01 3.42,-2.45 3.24,-4.33c4.71,1.19 8.44,1.85 11.44,1.88c2.87,-0.03 4.43,-0.53 6.21,-1.62c1.77,-1.12 3.14,-2.73 4.25,-4.86c1.86,1.55 4.22,1.85 7.18,0.81c2.9,-1.07 8.87,-4.25 10.45,-7.03c1.38,-2.81 0.15,-7.52 -1.32,-9.72c-1.49,-2.22 -4.67,-3.16 -7.18,-3.79c-2.56,-0.68 -5.41,-0.07 -7.82,-0.53c-2.48,-0.58 -4.47,-1.75 -6.55,-2.71c-2.17,-0.98 -3.97,-2.02 -5.87,-3.11c5.6,-8.8 12.23,-19.15 20.24,-31.61c7.95,-12.58 16.36,-26.3 27.46,-42.66c11.07,-16.42 22.53,-31.92 38.86,-54.91c16.38,-23.17 42.86,-59.61 58.46,-82.4c15.41,-22.84 27.36,-40.82 33.63,-52.96c6.08,-12.04 5.01,-12.58 3.27,-18.77c-1.83,-6.25 -7.7,-14.51 -13.72,-18.39c-6.08,-3.92 -14.31,-4.63 -22.2,-4.85c-7.97,-0.3 -14.55,-0.43 -25.16,3.24c-10.79,3.67 -26.38,14.56 -38.52,18.64c-12.14,3.97 -22.29,5.94 -33.63,5.14c-11.47,-0.93 -24.94,-4.48 -33.96,-10.52c-8.93,-6.07 -13.66,-13.45 -19.3,-25.67c-5.75,-12.47 -8.56,-34.52 -14.68,-47.82c-6.27,-13.26 -14,-22.89 -21.89,-31.06c-7.92,-8.25 -15.29,-13.15 -24.83,-17.83c-9.72,-4.76 -22.38,-8.14 -32.32,-10.27c-9.88,-2.2 -18.52,-2.88 -26.45,-2.42c1.44,-1.44 3.09,-2.83 5.2,-4.07c2.05,-1.34 4.41,-2.37 7.18,-3.49c1.26,-0.89 1.87,-1.84 2.29,-2.98c0.31,-1.12 0.25,-2.4 -0.31,-3.77c-5.07,-2.04 -11.89,-3.64 -20.91,-4.88c-9.15,-1.24 -20.31,-2.85 -32.99,-2.42c-12.81,0.38 -26.75,1.85 -42.77,4.6c-1.8,2.66 -2.72,4.9 -2.63,6.75c0.03,1.85 1.01,3.29 2.94,4.33c3.7,0.86 6.42,2 8.5,3.51c2.01,1.47 3.18,3.27 3.61,5.39l-1.66,83.76l6.55,11.61zm52.59,-3.19c6.17,-1.9 11.7,-2.58 16.97,-2.15c5.16,0.43 8.74,0.79 14.03,4.85c5.16,4.03 11.5,11.11 17.33,19.2c5.81,8.09 10.7,20.33 17.61,28.63c6.85,8.17 13.55,13.91 23.51,20.25c10,6.27 22.68,13.4 35.92,17.3c13.21,3.77 30,5.14 42.47,5.66c12.26,0.51 19.93,-0.53 31.03,-2.42c11.16,-1.92 23.51,-5.39 35.28,-8.93c11.68,-3.62 22.87,-7.69 34.27,-12.42c-16.02,16.11 -32.65,32.8 -50.6,50.86c-18.03,18.1 -38.22,38.29 -56.53,56.73c-18.37,18.36 -35.1,35.63 -52.89,52.4c-18,16.64 -36.96,32.6 -53.56,46.82c-16.54,14.16 -31.4,26.45 -45.06,37.56c-0.09,-1.01 -0.61,-1.72 -1.32,-2.43c-0.74,-0.68 -1.89,-1.26 -3.24,-1.64c0.98,-1.39 1.2,-2.4 0.65,-3.24c-0.55,-0.78 -1.89,-1.39 -3.92,-1.62l0.98,-101.85c2.42,-1.67 3.61,-3.29 3.58,-4.86c-0.12,-1.62 -1.34,-3.08 -3.91,-4.6c2.38,-1.44 3.02,-3.24 2.29,-5.39c-0.86,-2.25 -3.21,-4.65 -7.18,-7.59l-0.99,-176.61c1.07,-1.49 2.17,-3.01 3.28,-4.52z" id="path15"/>
   <path d="m103.96,126.44c1.07,-1.62 3.21,-2.88 6.54,-3.89c3.33,-1.04 8.29,-2.02 13.33,-2.18c5.07,-0.25 12.26,-0.05 16.48,1.09c4.03,1.09 6.69,2.96 7.86,5.61l-0.27,171.42c-2.08,2.05 -5.44,3.39 -10.45,4.12c-5.04,0.71 -13.7,1.04 -19.36,0.2c-5.66,-0.91 -10.45,-2.68 -14.4,-5.42c0.09,-56.98 0.19,-113.96 0.28,-170.97z" fill="#00ff7f" id="path17"/>
   <path d="m106.32,131.86c0.98,-1.17 1.8,-1.62 2.6,-1.09c0.73,0.46 1.34,-0.55 1.83,3.89c0.4,4.45 1.07,10.95 1.07,22.71c-0.09,11.81 -0.92,29.13 -1.07,47.2c-0.15,17.98 -0.06,45.7 0.27,59.94c0.25,13.98 1.32,18.74 1.32,24.03c-0.09,5.21 -0.98,6.07 -1.59,7.36c-0.76,1.24 -1.72,0.51 -2.35,0.23c-0.68,-0.38 -1.2,-1.14 -1.56,-2.38c0.4,1.67 1.01,2.86 1.83,3.67c0.8,0.81 1.87,1.47 2.87,1.09c0.92,-0.48 2.39,1.06 2.63,-3.67c0.19,-4.85 -1.04,-14.18 -1.32,-24.88c-0.33,-10.9 -0.55,-24.74 -0.52,-39.18c-0.03,-14.47 0.46,-32.77 0.52,-46.54c-0.06,-13.78 -0.55,-26.45 -0.52,-35.28c-0.06,-8.9 0.82,-13.73 0.52,-17.32c-0.4,-3.54 -1.34,-3.34 -2.35,-3.89c-1.07,-0.71 -2.96,-0.71 -3.67,0c-0.7,0.68 -0.92,2.02 -0.52,4.12z" id="path19"/>
   <path d="m118.33,127.81c1.04,-1.26 1.83,-1.64 2.62,-1.14c0.74,0.43 1.35,-0.55 1.83,4.07c0.43,4.68 1.01,11.46 1.04,23.75c-0.13,12.34 -0.86,30.45 -1.04,49.34c-0.15,18.82 -0.06,47.8 0.28,62.67c0.18,14.67 1.28,19.6 1.28,25.14c-0.13,5.46 -0.92,6.29 -1.56,7.69c-0.79,1.24 -1.62,0.63 -2.35,0.22c-0.67,-0.4 -1.19,-1.24 -1.56,-2.5c0.46,1.72 0.95,3.01 1.81,3.87c0.76,0.86 1.93,1.49 2.9,1.11c0.94,-0.45 2.32,1.07 2.6,-3.84c0.18,-5.06 -1.04,-14.87 -1.32,-26.03c-0.34,-11.3 -0.55,-25.9 -0.52,-40.94c-0.03,-15.13 0.46,-34.27 0.52,-48.66c-0.06,-14.44 -0.55,-27.62 -0.52,-36.9c-0.06,-9.23 0.82,-14.42 0.52,-18.08c-0.4,-3.72 -1.34,-3.41 -2.35,-4.07c-1.1,-0.74 -2.9,-0.74 -3.64,0c-0.7,0.73 -0.88,2.1 -0.54,4.3z" id="path21"/>
   <path d="m131.69,129.81c1.04,-1.16 1.83,-1.62 2.62,-1.09c0.68,0.46 1.32,-0.6 1.81,3.95c0.4,4.48 1.07,11.18 1.07,23.04c-0.09,11.96 -0.92,29.53 -1.07,47.85c-0.15,18.29 -0.06,46.36 0.27,60.8c0.25,14.24 1.32,18.94 1.32,24.36c-0.09,5.28 -0.98,6.15 -1.59,7.46c-0.76,1.26 -1.72,0.55 -2.35,0.22c-0.68,-0.38 -1.2,-1.19 -1.56,-2.42c0.4,1.69 1.01,2.91 1.83,3.74c0.8,0.81 1.87,1.47 2.87,1.09c0.92,-0.51 2.39,1.12 2.63,-3.72c0.19,-4.98 -1.04,-14.34 -1.32,-25.24c-0.33,-10.97 -0.55,-25.16 -0.52,-39.73c-0.03,-14.62 0.46,-33.31 0.52,-47.2c-0.06,-13.99 -0.55,-26.78 -0.52,-35.76c-0.06,-9.01 0.82,-13.91 0.52,-17.56c-0.4,-3.56 -1.34,-3.39 -2.35,-3.97c-1.07,-0.71 -2.96,-0.71 -3.67,0c-0.7,0.68 -0.92,2.07 -0.52,4.17z" id="path23"/>
   <path d="m142.15,136.18c1.04,-1.14 1.83,-1.44 2.63,-1c0.73,0.4 1.34,-0.56 1.83,3.64c0.42,4.2 1,10.29 1.04,21.32c-0.12,11.08 -0.86,27.34 -1.04,44.28c-0.15,16.92 -0.03,42.92 0.24,56.25c0.25,13.17 1.32,17.5 1.32,22.53c-0.12,4.85 -0.92,5.69 -1.55,6.91c-0.7,1.11 -1.68,0.53 -2.36,0.2c-0.67,-0.38 -1.16,-1.09 -1.59,-2.23c0.4,1.54 1.01,2.66 1.83,3.44c0.8,0.79 1.87,1.32 2.88,1.01c0.92,-0.48 2.38,1.04 2.62,-3.44c0.19,-4.58 -1.04,-13.31 -1.32,-23.35c-0.33,-10.19 -0.54,-23.27 -0.52,-36.78c-0.03,-13.53 0.46,-30.78 0.52,-43.65c-0.06,-12.98 -0.54,-24.79 -0.52,-33.11c-0.06,-8.32 0.82,-12.92 0.52,-16.24c-0.39,-3.31 -1.34,-3.13 -2.35,-3.67c-1.07,-0.65 -2.96,-0.65 -3.67,0c-0.7,0.64 -0.92,1.92 -0.52,3.87z" id="path25"/>
   <path d="m102.65,300.4c4.37,1.92 8.87,3.29 13.61,4.1s8.83,1.07 14.64,0.66c5.75,-0.48 12.14,-1.77 19.63,-3.67c2.51,0.96 4.04,2.23 4.71,4.1c0.64,1.8 0.21,4 -1.04,6.7c-2.45,2 -6.63,3.41 -12.81,4.35c-6.3,0.84 -17,1.64 -24.09,1.07c-7.09,-0.58 -12.99,-2.13 -18.04,-4.53c-2.17,-1.33 -3.39,-2.78 -3.67,-4.32c-0.37,-1.64 0.65,-3.57 1.83,-4.98c1.16,-1.4 2.9,-2.59 5.23,-3.47z" fill="#7fff00" id="path27"/>
   <path d="m98.18,315.75c3.3,1.41 7.89,2.5 13.64,3.26s13.55,1.97 20.91,1.29c7.34,-0.84 14.77,-2.66 22.78,-5.85c1.99,0.22 3.03,0.98 3.12,2.18c0.03,1.19 -0.79,2.8 -2.6,4.95c-7.52,2.13 -14.09,3.54 -20.42,4.35c-6.27,0.81 -10.79,0.89 -17,0.44c-6.36,-0.56 -12.93,-1.64 -20.43,-3.47c-2.41,-1.16 -3.67,-2.25 -3.63,-3.46c-0.03,-1.24 1.22,-2.4 3.63,-3.69z" fill="#7fff00" id="path29"/>
   <path d="m94.79,425.33c2.6,1.62 6.11,2.88 11.01,3.9c4.89,0.98 11.09,1.89 17.79,1.95c6.54,-0.11 15.81,-1.19 21.19,-2.18c5.22,-1.04 8.59,-2.3 10.21,-3.89c1.68,0 2.6,0.32 2.87,1.08c0.25,0.69 -0.15,1.8 -1.31,3.24c-3.15,1.62 -7.34,2.89 -12.57,3.9c-5.41,0.98 -12.2,1.9 -18.84,1.95c-6.6,0 -14.85,-1.5 -20.14,-2.15c-5.29,-0.74 -8.93,-1.59 -11.25,-2.38c-1.22,-1.04 -1.74,-1.95 -1.55,-2.83c0.15,-0.91 0.98,-1.77 2.6,-2.58z" fill="#7fff00" id="path31"/>
   <path d="m91.91,432.04c0.95,1.19 4.31,2.21 10.22,3.03c5.93,0.84 17.64,1.85 24.85,1.95c6.97,-0.02 11.86,-0.6 17.27,-1.74c5.42,-1.17 10.31,-2.86 14.92,-5.18c1.93,1.59 2.96,3.46 3.12,5.61c0.07,2.18 -1.04,5.21 -2.35,7.16c-1.38,1.85 -1.4,2.66 -5.75,3.89c-4.52,1.19 -14,2.54 -20.42,3.03c-6.42,0.41 -11.56,0.15 -17.52,-0.65c-6.11,-0.96 -14.06,-3.06 -18.32,-4.55c-4.21,-1.5 -6.45,-2.94 -6.81,-4.33c-1.6,-1.69 -2.17,-3.21 -2.08,-4.55c0.06,-1.39 1.13,-2.58 2.87,-3.67z" fill="#7fff00" id="path33"/>
   <path d="m91.67,444.16c-2.06,2.12 -3.97,3.89 -5.78,5.41c-1.8,1.41 -3.42,2.15 -5.22,3.46c-1.96,1.26 -4.01,2.71 -6.27,4.33l28.52,10.82c2.17,-1.89 4.01,-4.17 5.75,-7.13c1.68,-2.99 3.12,-6.34 4.43,-10.39c-3.82,0.2 -7.37,-0.23 -10.97,-1.29c-3.61,-1.14 -7.1,-2.8 -10.45,-5.21z" fill="#3f7f00" id="path35"/>
   <path d="m117.57,451.51c6.96,0.48 13.66,0.38 20.66,-0.2c6.97,-0.6 13.66,-1.79 20.67,-3.46c4.55,2.68 8.13,5.39 10.97,8.22c2.79,2.78 4.71,5.66 5.78,8.65c-4.47,1.29 -12.32,2.13 -23.82,2.81c-11.68,0.58 -26.29,0.91 -45,0.89c3.79,-3.29 6.54,-6.32 8.37,-9.1c1.83,-2.89 2.51,-5.39 2.36,-7.79z" fill="#00ff7f" id="path37"/>
   <path d="m182.72,466.76c2.54,0.08 3.88,0.71 3.92,2.18c0.03,1.44 -1.19,3.44 -3.67,6.27c-11.01,1.03 -22.72,1.87 -35.83,2.6c-13.15,0.69 -27.09,1.19 -42.4,1.52c-1.81,-1.79 -2.75,-3.41 -2.6,-4.75c0.03,-1.37 1.16,-2.56 3.15,-3.47c19.47,-0.02 35.37,-0.35 48.39,-1.09c13.03,-0.81 22.47,-1.76 29.05,-3.26z" fill="#7fff00" id="path39"/>
   <path d="m102.13,469.8c-0.09,-0.33 -2.75,-1.42 -8.1,-3.46c-5.38,-2.02 -13.24,-4.91 -23.82,-8.66c-3.08,0.28 -4.71,1.22 -4.99,2.81c-0.21,1.62 0.76,3.79 3.4,6.73l31.68,11.02c-1.38,-1.9 -1.9,-3.59 -1.56,-4.98c0.27,-1.39 1.41,-2.58 3.4,-3.46z" fill="#3f7f00" id="path41"/>
   <path d="m101.33,480.62l-0.25,13.2l-30.35,-10.6l-0.8,-13.2l31.4,10.6z" fill="#007f00" id="path43"/>
   <path d="m105,481.48l-0.27,12.14l75.88,-2.83l-0.25,-11.68l-75.37,2.37z" fill="#00ff7f" id="path45"/>
   <path d="m102.92,495.99c-2.39,-0.02 -3.76,0.84 -4.46,2.59c-0.61,1.74 -0.55,4.27 0.52,7.79c29.07,-0.18 50.54,-0.71 65.68,-1.5c14.95,-0.84 19.9,-2.02 23.81,-3.46c3.76,-1.54 0.15,-3.9 -0.8,-5.42c-0.98,-1.51 -2.62,-2.77 -4.95,-3.69c-10.91,0.86 -22.72,1.52 -36.1,2.18c-13.49,0.6 -27.74,1.11 -43.7,1.51z" fill="#7fff00" id="path47"/>
   <path d="m68.1,484.31c-3.18,-0.3 -5.14,0.38 -5.75,1.95c-0.7,1.59 -0.09,4.05 1.83,7.57l32.2,11.68c-1.16,-3.01 -1.32,-5.28 -0.8,-6.93c0.61,-1.69 1.89,-2.63 4.19,-3.01c-10.55,-3.74 -21.1,-7.49 -31.67,-11.26z" fill="#3f7f00" id="path49"/>
   <path d="m97.42,324.5c2.6,1.57 6.61,2.66 12.14,3.37c5.57,0.66 12.91,1.47 20.71,0.78c7.73,-0.78 15.83,-2.4 25,-5.14l-1.68,99.63c-2.26,2.25 -6.54,3.89 -13.08,4.73c-6.64,0.84 -18.5,1.06 -25.93,0.41c-7.52,-0.76 -13.55,-2.3 -18.56,-4.73c0.46,-33 0.92,-66.02 1.4,-99.04z" fill="#00ff00" id="path51"/>
   <path d="m100.47,28.42l-1.71,80.78c6.23,-1.26 13.94,-1.97 23.47,-1.92c9.55,-0.06 20.46,0.65 33.33,1.92l3.3,-78.99c-8.83,-2.04 -17.95,-3.21 -27.7,-3.49c-9.78,-0.27 -19.94,0.25 -30.7,1.7z" fill="#00ff00" id="path53"/>
   <path d="m99.22,110.76c6.08,-1.11 12.56,-1.62 19.57,-1.82c7.03,-0.13 15.9,0.2 22.23,0.79c6.17,0.48 11.19,1.14 15.04,2.07l-7.22,9.31c-5.56,-2.26 -11.86,-3.41 -19.26,-3.49s-15.65,0.79 -24.88,2.86c-1.8,-3.24 -3.63,-6.48 -5.47,-9.72z" fill="#7fff00" id="path55"/>
   <path d="m87.63,16.43c4.62,-1.31 11.07,-2.33 19.72,-3.23c8.56,-0.94 20.61,-2.51 31.64,-2.08c11.07,0.44 22.07,1.77 33.97,4.4l-15.04,10.88c-12.82,-1.64 -23.64,-2.51 -33.17,-2.58s-17.25,0.48 -23.48,1.95c-2.23,-3.24 -4.53,-5.61 -6.76,-7.13c-2.35,-1.59 -4.53,-2.33 -6.88,-2.21z" fill="#00ff00" id="path57"/>
   <path d="m87.48,13.98c-1.68,-1.01 -2.47,-1.97 -2.51,-2.99c-0.06,-1.08 0.67,-2.02 2.2,-3.11c15.38,-3.11 30.09,-4.5 45.07,-4.28c14.85,0.2 29.35,2.1 43.84,5.69c1.34,0.86 1.95,1.59 1.72,2.48c-0.25,0.84 -1.29,1.62 -3.13,2.45c-14.64,-3.44 -28.82,-5.14 -43.5,-5.18c-14.71,0 -28.96,1.52 -43.7,4.93z" fill="#7fff00" id="path59"/>
   <path d="m164.31,26.7c13.33,0.33 25.19,1.8 35.96,4.3c10.7,2.48 19.53,5.94 28.15,10.78c8.54,4.73 16.18,10.24 22.93,17.9c6.73,7.69 12.29,16.69 16.94,27.8c4.46,11.13 5.81,26.7 10.17,37.96c4.31,11.08 8.9,20.79 15.9,28.26c7.01,7.4 15.32,12.72 25.78,15.93c10.43,3.01 24.43,3.74 35.98,2.6c11.35,-1.16 21.16,-5.13 32.04,-9.28c10.85,-4.27 23.46,-12.79 32.6,-15.53c9.08,-2.7 17.3,-1.85 21.37,-0.43c3.88,1.41 4.22,5.54 2.08,8.85c-2.17,3.26 -7.24,6.67 -15.1,10.54c-3.92,-1.5 -7.83,-2.1 -11.99,-1.72c-4.21,0.38 -6.23,0.96 -12.77,3.89c-6.7,2.91 -16.7,9.77 -26.33,13.36c-9.75,3.46 -21.34,6.02 -31,7.57c-9.66,1.52 -15.97,3.64 -26.33,1.49c-10.55,-2.2 -24.88,-6.17 -35.71,-14.64c-10.82,-8.68 -19.87,-22.26 -28.68,-36.45c-8.95,-14.29 -15.9,-34.9 -24.24,-48.08c-8.32,-13.1 -13.89,-22.86 -25.29,-30.17c-11.49,-7.36 -25.59,-11.96 -42.98,-13.81c0.15,-7.03 0.33,-14.06 0.52,-21.12z" fill="#aaffaa" id="path61"/>
   <path d="m164.36,51.64c9.11,0.27 17.31,1.71 25.05,4.52c7.61,2.75 13.7,4.83 20.85,12.09s15.5,20.66 21.61,31.03c5.96,10.32 9.23,20.82 14.06,30.4c4.77,9.48 9.45,18.74 14.62,26.3c5.14,7.49 8.71,12.72 16.14,18.54c7.34,5.69 18,12.47 27.88,15.76c9.82,3.21 18.38,4.43 30.76,3.64c12.35,-0.91 31.12,-4.78 42.74,-8.4c11.44,-3.64 18.47,-9.84 25.81,-12.93c7.21,-3.11 12.99,-5.11 17.45,-5.41c4.31,-0.33 7.07,1.57 8.63,3.24c1.44,1.57 1,3.74 0.24,6.25c-0.79,2.48 -2.45,5.18 -4.95,8.42c-11.01,4.9 -23.33,9.06 -37.78,12.92c-14.52,3.79 -32.44,8.4 -48.22,9.72c-15.9,1.24 -31.06,0.6 -45.86,-2.38c-14.85,-3.16 -30.27,-8.44 -42.22,-15.95c-11.89,-7.66 -21.37,-19.73 -28.93,-28.88c-7.64,-9.13 -11.7,-18.72 -16.69,-25.45c-5.04,-6.75 -8.62,-11.16 -13.55,-14.87c-5.08,-3.81 -10.85,-6.25 -16.17,-7.76c-5.42,-1.62 -10.43,-2.02 -15.63,-1.52c1.38,-19.76 2.75,-39.5 4.15,-59.28z" fill="#00ff00" id="path63"/>
   <path d="m450.89,147.16c4.74,1.06 7.55,3.62 8.31,7.76c0.7,4.14 -0.7,10.34 -3.63,17.02c-2.97,6.6 -4.74,9.66 -13.83,22.43c-9.26,12.82 -27.18,36.95 -40.66,53.67c-13.48,16.59 -24.79,27.93 -39.59,45.5c-14.95,17.58 -34.82,42.44 -48.77,59.29c-13.91,16.74 -22.68,27.03 -33.87,40.75c-11.23,13.71 -22.23,27.89 -32.69,40.79c-10.49,12.8 -20.24,24.36 -29.72,35.36l-26.6,2.18c0.88,-1.5 1.19,-2.76 0.8,-3.9c-0.43,-1.19 -1.32,-2.12 -3.13,-2.8c-1.89,-0.71 -4.55,-1.24 -8.1,-1.5c-1.19,-2.93 -3.27,-5.71 -5.99,-8.62c-2.88,-2.94 -6.27,-5.72 -10.68,-8.63c1.62,-3.01 2.67,-5.25 3.13,-7.13c0.46,-1.85 0.24,-3.13 -0.53,-3.87c13.37,-9.81 28.99,-22.4 47.7,-38.37c18.72,-16.11 45.1,-39.83 63.59,-56.93c18.34,-17.13 32.48,-31.29 46.14,-44.84c13.55,-13.58 23.81,-24.36 35.19,-35.84c11.35,-11.49 21.5,-21.65 32.56,-32.56c11.07,-11.1 25.68,-24.53 33.11,-32.77c7.18,-8.17 9.05,-11.63 10.43,-15.96c1.4,-4.38 0.67,-7.71 -2.08,-10.12c6.23,-2 10.89,-4.73 14.06,-8.19c3.12,-3.54 4.77,-7.69 4.83,-12.72z" fill="#aaffaa" id="path65"/>
   <path d="m463.06,155.56c3.08,2.45 5.13,5.14 6.27,8.42c1.07,3.18 2.99,3.81 0.24,10.77c-2.84,6.96 -7.03,14.85 -17.18,30.6c-10.4,15.81 -31.52,45.55 -43.81,63.18c-12.31,17.43 -14.45,19.93 -29.16,40.97c-14.79,21.12 -42.68,60.87 -58.64,84.35c-15.96,23.3 -27.98,41.15 -36.5,54.53c-2.11,-0.28 -3.97,-0.03 -5.72,0.65c-1.78,0.69 -3.3,1.8 -4.71,3.44c-3.79,-0.93 -6.85,-1.29 -9.63,-1.06c-2.78,0.13 -4.65,0.89 -6.79,2.37c-2.2,1.5 -4.28,3.72 -6.23,6.67c-4.53,-0.45 -8.01,-0.63 -10.95,-0.43c-2.87,0.11 -4.25,0.08 -6.27,1.5c-2.14,1.36 -4.31,3.67 -6.51,6.91l-7.03,0.22c18.23,-20.64 35.35,-40.89 52.66,-61.66c17.21,-20.89 34.67,-43.5 49.77,-62.09c14.92,-18.61 24.28,-30.19 39.63,-48.31c15.37,-18.24 39.1,-44.26 51.86,-59.53c12.47,-15.23 17.17,-22.36 23.44,-31.06c6.24,-8.73 10.46,-14.87 14.07,-20.69c3.42,-5.82 5.5,-9.06 7.3,-14.01c1.83,-5.01 3.18,-10.17 3.92,-15.76z" fill="#007f00" id="path67"/>
   <path d="m171.01,42.81l2.45,0l0,406.83l-2.45,0l0,-406.83z" id="path69"/>
   <path d="m183.24,43.82l2.45,0l0,396.72l-2.45,0l0,-396.72z" id="path71"/>
   <path d="m195.47,47.61l2.45,0l0,381.52l-2.45,0l0,-381.52z" id="path73"/>
   <path d="m207.7,52.92l2.45,0l0,364.32l-2.45,0l0,-364.32z" id="path75"/>
   <path d="m219.92,61.52l2.45,0l0,344.08l-2.45,0l0,-344.08z" id="path77"/>
   <path d="m232.15,74.95l2.45,0l0,319.02l-2.45,0l0,-319.02z" id="path79"/>
   <path d="m244.38,92.91l2.45,0l0,287.89l-2.45,0l0,-287.89z" id="path81"/>
   <path d="m256.61,115.95l2.45,0l0,253.22l-2.45,0l0,-253.22z" id="path83"/>
   <path d="m268.84,139.72l2.45,0l0,217.56l-2.45,0l0,-217.56z" id="path85"/>
   <path d="m281.07,156.67l2.45,0l0,188.47l-2.45,0l0,-188.47z" id="path87"/>
   <path d="m293.3,169.34l2.45,0l0,164.14l-2.45,0l0,-164.14z" id="path89"/>
   <path d="m305.53,176.17l2.45,0l0,144.41l-2.45,0l0,-144.41z" id="path91"/>
   <path d="m317.76,180.72l2.45,0l0,128.48l-2.45,0l0,-128.48z" id="path93"/>
   <path d="m329.99,183.25l2.45,0l0,114.06l-2.45,0l0,-114.06z" id="path95"/>
   <path d="m342.22,182.74l2.45,0l0,102.65l-2.45,0l0,-102.65z" id="path97"/>
   <path d="m354.45,181.23l2.45,0l0,91.53l-2.45,0l0,-91.53z" id="path99"/>
   <path d="m366.68,177.94l2.45,0l0,81.91l-2.45,0l0,-81.91z" id="path101"/>
   <path d="m378.91,173.64l2.45,0l0,73.82l-2.45,0l0,-73.82z" id="path103"/>
   <path d="m391.14,168.33l2.45,0l0,67.48l-2.45,0l0,-67.48z" id="path105"/>
   <path d="m403.37,163.52l2.45,0l0,60.14l-2.45,0l0,-60.14z" id="path107"/>
   <path d="m168.14,41.67c0,1.47 1.72,2.66 3.82,2.66c2.14,0 3.86,-1.19 3.86,-2.66s-1.72,-2.66 -3.86,-2.66c-2.11,0 -3.82,1.19 -3.82,2.66z" id="path109"/>
   <path d="m169.66,41.42c0,0.76 0.88,1.37 1.99,1.37s2.02,-0.61 2.02,-1.37c0,-0.78 -0.92,-1.39 -2.02,-1.39s-1.99,0.61 -1.99,1.39z" fill="#fff" id="path111"/>
   <path d="m180.37,44.2c0,1.47 1.72,2.66 3.82,2.66c2.14,0 3.86,-1.19 3.86,-2.66s-1.72,-2.66 -3.86,-2.66c-2.11,0 -3.82,1.19 -3.82,2.66z" id="path113"/>
   <path d="m181.89,43.95c0,0.76 0.88,1.37 1.99,1.37s2.02,-0.61 2.02,-1.37c0,-0.78 -0.92,-1.39 -2.02,-1.39s-1.99,0.61 -1.99,1.39z" fill="#fff" id="path115"/>
   <path d="m192.59,48.24c0,1.47 1.72,2.66 3.82,2.66c2.14,0 3.86,-1.19 3.86,-2.66s-1.72,-2.66 -3.86,-2.66c-2.11,0 -3.82,1.19 -3.82,2.66z" id="path117"/>
   <path d="m194.12,47.99c0,0.76 0.88,1.39 1.99,1.39s2.02,-0.63 2.02,-1.39s-0.92,-1.39 -2.02,-1.39s-1.99,0.63 -1.99,1.39z" fill="#fff" id="path119"/>
   <path d="m204.82,53.3c0,1.47 1.72,2.66 3.82,2.66c2.14,0 3.86,-1.19 3.86,-2.66s-1.72,-2.66 -3.86,-2.66c-2.11,0 -3.82,1.19 -3.82,2.66z" id="path121"/>
   <path d="m206.35,53.05c0,0.76 0.88,1.39 1.99,1.39s2.02,-0.63 2.02,-1.39s-0.92,-1.39 -2.02,-1.39s-1.99,0.63 -1.99,1.39z" fill="#fff" id="path123"/>
   <path d="m217.05,62.66c0,1.47 1.72,2.68 3.82,2.68c2.14,0 3.86,-1.22 3.86,-2.68s-1.72,-2.66 -3.86,-2.66c-2.11,0 -3.82,1.19 -3.82,2.66z" id="path125"/>
   <path d="m218.58,62.41c0,0.76 0.88,1.39 1.99,1.39s2.02,-0.63 2.02,-1.39s-0.92,-1.36 -2.02,-1.36s-1.99,0.6 -1.99,1.36z" fill="#fff" id="path127"/>
   <path d="m229.28,75.84c0,1.47 1.72,2.66 3.82,2.66c2.14,0 3.86,-1.19 3.86,-2.66s-1.72,-2.66 -3.86,-2.66c-2.11,0 -3.82,1.19 -3.82,2.66z" id="path129"/>
   <path d="m230.81,75.56c0,0.79 0.88,1.39 1.99,1.39s2.02,-0.6 2.02,-1.39c0,-0.76 -0.92,-1.36 -2.02,-1.36s-1.99,0.6 -1.99,1.36z" fill="#fff" id="path131"/>
   <path d="m241.51,93.29c0,1.47 1.72,2.66 3.82,2.66c2.14,0 3.86,-1.19 3.86,-2.66s-1.72,-2.66 -3.86,-2.66c-2.11,0 -3.82,1.19 -3.82,2.66z" id="path133"/>
   <path d="m243.04,93.04c0,0.76 0.88,1.39 1.99,1.39s2.02,-0.63 2.02,-1.39s-0.92,-1.39 -2.02,-1.39s-1.99,0.63 -1.99,1.39z" fill="#fff" id="path135"/>
   <path d="m253.74,117.34c0,1.47 1.72,2.66 3.82,2.66c2.14,0 3.86,-1.19 3.86,-2.66c0,-1.46 -1.72,-2.66 -3.86,-2.66c-2.11,0 -3.82,1.19 -3.82,2.66z" id="path137"/>
   <path d="m255.27,117.06c0,0.78 0.88,1.39 1.99,1.39s2.02,-0.61 2.02,-1.39c0,-0.76 -0.92,-1.37 -2.02,-1.37s-1.99,0.61 -1.99,1.37z" fill="#fff" id="path139"/>
   <path d="m265.97,140.1c0,1.47 1.72,2.66 3.82,2.66c2.14,0 3.86,-1.19 3.86,-2.66c0,-1.46 -1.72,-2.66 -3.86,-2.66c-2.11,0 -3.82,1.19 -3.82,2.66z" id="path141"/>
   <path d="m267.5,139.85c0,0.76 0.88,1.39 1.99,1.39s2.02,-0.63 2.02,-1.39s-0.92,-1.39 -2.02,-1.39s-1.99,0.63 -1.99,1.39z" fill="#fff" id="path143"/>
   <path d="m278.2,156.57c0,1.47 1.72,2.66 3.82,2.66c2.14,0 3.86,-1.19 3.86,-2.66c0,-1.49 -1.72,-2.68 -3.86,-2.68c-2.11,0 -3.82,1.19 -3.82,2.68z" id="path145"/>
   <path d="m279.73,156.29c0,0.76 0.88,1.39 1.99,1.39s2.02,-0.63 2.02,-1.39s-0.92,-1.36 -2.02,-1.36s-1.99,0.6 -1.99,1.36z" fill="#fff" id="path147"/>
   <path d="m290.43,169.47c0,1.47 1.72,2.66 3.82,2.66c2.14,0 3.86,-1.19 3.86,-2.66s-1.72,-2.66 -3.86,-2.66c-2.11,0 -3.82,1.19 -3.82,2.66z" id="path149"/>
   <path d="m291.96,169.19c0,0.79 0.88,1.39 1.99,1.39s2.02,-0.6 2.02,-1.39c0,-0.76 -0.92,-1.36 -2.02,-1.36s-1.99,0.6 -1.99,1.36z" fill="#fff" id="path151"/>
   <path d="m302.66,176.04c0,1.47 1.72,2.66 3.82,2.66c2.14,0 3.86,-1.19 3.86,-2.66s-1.72,-2.66 -3.86,-2.66c-2.11,0 -3.82,1.19 -3.82,2.66z" id="path153"/>
   <path d="m304.19,175.79c0,0.76 0.88,1.36 1.99,1.36s2.02,-0.6 2.02,-1.36c0,-0.79 -0.92,-1.39 -2.02,-1.39s-1.99,0.6 -1.99,1.39z" fill="#fff" id="path155"/>
   <path d="m314.89,181.61c0,1.47 1.72,2.66 3.82,2.66c2.14,0 3.86,-1.19 3.86,-2.66s-1.72,-2.66 -3.86,-2.66c-2.11,0 -3.82,1.19 -3.82,2.66z" id="path157"/>
   <path d="m316.42,181.35c0,0.76 0.88,1.36 1.99,1.36s2.02,-0.6 2.02,-1.36c0,-0.79 -0.92,-1.39 -2.02,-1.39s-1.99,0.6 -1.99,1.39z" fill="#fff" id="path159"/>
   <path d="m327.12,183.38c0,1.47 1.72,2.66 3.82,2.66c2.14,0 3.86,-1.19 3.86,-2.66s-1.72,-2.66 -3.86,-2.66c-2.11,0 -3.82,1.19 -3.82,2.66z" id="path161"/>
   <path d="m328.65,183.12c0,0.76 0.88,1.36 1.99,1.36s2.02,-0.6 2.02,-1.36c0,-0.79 -0.92,-1.39 -2.02,-1.39s-1.99,0.6 -1.99,1.39z" fill="#fff" id="path163"/>
   <path d="m339.35,182.11c0,1.47 1.72,2.66 3.82,2.66c2.14,0 3.86,-1.19 3.86,-2.66s-1.72,-2.66 -3.86,-2.66c-2.11,0 -3.82,1.19 -3.82,2.66z" id="path165"/>
   <path d="m340.88,181.86c0,0.76 0.88,1.36 1.99,1.36s2.02,-0.6 2.02,-1.36c0,-0.79 -0.92,-1.39 -2.02,-1.39s-1.99,0.6 -1.99,1.39z" fill="#fff" id="path167"/>
   <path d="m351.58,181.1c0,1.47 1.72,2.66 3.82,2.66c2.14,0 3.86,-1.19 3.86,-2.66s-1.72,-2.66 -3.86,-2.66c-2.11,0 -3.82,1.19 -3.82,2.66z" id="path169"/>
   <path d="m353.11,180.85c0,0.76 0.88,1.36 1.99,1.36s2.02,-0.6 2.02,-1.36c0,-0.79 -0.92,-1.39 -2.02,-1.39s-1.99,0.6 -1.99,1.39z" fill="#fff" id="path171"/>
   <path d="m363.81,177.81c0,1.47 1.72,2.66 3.82,2.66c2.14,0 3.86,-1.19 3.86,-2.66s-1.72,-2.66 -3.86,-2.66c-2.11,0 -3.82,1.19 -3.82,2.66z" id="path173"/>
   <path d="m365.34,177.56c0,0.76 0.88,1.36 1.99,1.36s2.02,-0.6 2.02,-1.36c0,-0.79 -0.92,-1.39 -2.02,-1.39s-1.99,0.6 -1.99,1.39z" fill="#fff" id="path175"/>
   <path d="m376.04,174.27c0,1.47 1.72,2.66 3.82,2.66c2.14,0 3.86,-1.19 3.86,-2.66s-1.72,-2.66 -3.86,-2.66c-2.11,0 -3.82,1.19 -3.82,2.66z" id="path177"/>
   <path d="m377.57,174.02c0,0.76 0.88,1.36 1.99,1.36s2.02,-0.6 2.02,-1.36c0,-0.79 -0.92,-1.39 -2.02,-1.39s-1.99,0.6 -1.99,1.39z" fill="#fff" id="path179"/>
   <path d="m388.27,167.95c0,1.47 1.72,2.66 3.82,2.66c2.14,0 3.86,-1.19 3.86,-2.66s-1.72,-2.66 -3.86,-2.66c-2.11,0 -3.82,1.19 -3.82,2.66z" id="path181"/>
   <path d="m389.8,167.67c0,0.79 0.88,1.39 1.99,1.39s2.02,-0.6 2.02,-1.39c0,-0.76 -0.92,-1.36 -2.02,-1.36s-1.99,0.6 -1.99,1.36z" fill="#fff" id="path183"/>
   <path d="m400.5,163.65c0,1.47 1.72,2.66 3.82,2.66c2.14,0 3.86,-1.19 3.86,-2.66s-1.72,-2.66 -3.86,-2.66c-2.11,0 -3.82,1.19 -3.82,2.66z" id="path185"/>
   <path d="m402.03,163.37c0,0.76 0.88,1.39 1.99,1.39s2.02,-0.63 2.02,-1.39s-0.92,-1.36 -2.02,-1.36s-1.99,0.6 -1.99,1.36z" fill="#fff" id="path187"/>
   <path d="m168.14,448.78c0,1.01 1.72,1.85 3.82,1.85c2.14,0 3.86,-0.84 3.86,-1.85c0,-1.03 -1.72,-1.85 -3.86,-1.85c-2.11,0 -3.82,0.81 -3.82,1.85z" id="path189"/>
   <path d="m169.66,448.6c0,0.53 0.88,0.96 1.99,0.96s2.02,-0.43 2.02,-0.96c0,-0.53 -0.92,-0.96 -2.02,-0.96s-1.99,0.44 -1.99,0.96z" fill="#fff" id="path191"/>
   <path d="m180.37,440.94c0,1.01 1.72,1.85 3.82,1.85c2.14,0 3.86,-0.83 3.86,-1.85c0,-1.03 -1.72,-1.85 -3.86,-1.85c-2.11,0 -3.82,0.81 -3.82,1.85z" id="path193"/>
   <path d="m181.89,440.76c0,0.53 0.88,0.96 1.99,0.96s2.02,-0.43 2.02,-0.96c0,-0.53 -0.92,-0.98 -2.02,-0.98s-1.99,0.46 -1.99,0.98z" fill="#fff" id="path195"/>
   <path d="m192.59,429.56c0,1 1.72,1.84 3.82,1.84c2.14,0 3.86,-0.84 3.86,-1.84c0,-1.04 -1.72,-1.88 -3.86,-1.88c-2.11,0 -3.82,0.84 -3.82,1.88z" id="path197"/>
   <path d="m194.12,429.36c0,0.53 0.88,0.98 1.99,0.98s2.02,-0.46 2.02,-0.98c0,-0.53 -0.92,-0.96 -2.02,-0.96s-1.99,0.43 -1.99,0.96z" fill="#fff" id="path199"/>
   <path d="m204.82,418.15c0,1.03 1.72,1.87 3.82,1.87c2.14,0 3.86,-0.84 3.86,-1.87c0,-1.01 -1.72,-1.85 -3.86,-1.85c-2.11,0 -3.82,0.84 -3.82,1.85z" id="path201"/>
   <path d="m206.35,417.98c0,0.53 0.88,0.96 1.99,0.96s2.02,-0.43 2.02,-0.96c0,-0.53 -0.92,-0.96 -2.02,-0.96s-1.99,0.43 -1.99,0.96z" fill="#fff" id="path203"/>
   <path d="m217.05,406.27c0,1.04 1.72,1.85 3.82,1.85c2.14,0 3.86,-0.81 3.86,-1.85c0,-1.01 -1.72,-1.85 -3.86,-1.85c-2.11,0 -3.82,0.84 -3.82,1.85z" id="path205"/>
   <path d="m218.58,406.09c0,0.53 0.88,0.96 1.99,0.96s2.02,-0.43 2.02,-0.96c0,-0.53 -0.92,-0.96 -2.02,-0.96s-1.99,0.43 -1.99,0.96z" fill="#fff" id="path207"/>
   <path d="m229.28,394.38c0,1.01 1.72,1.85 3.82,1.85c2.14,0 3.86,-0.84 3.86,-1.85c0,-1.04 -1.72,-1.85 -3.86,-1.85c-2.11,0 -3.82,0.81 -3.82,1.85z" id="path209"/>
   <path d="m230.81,394.21c0,0.53 0.88,0.96 1.99,0.96s2.02,-0.43 2.02,-0.96c0,-0.53 -0.92,-0.99 -2.02,-0.99s-1.99,0.46 -1.99,0.99z" fill="#fff" id="path211"/>
   <path d="m241.51,380.19c0,1.04 1.72,1.87 3.82,1.87c2.14,0 3.86,-0.83 3.86,-1.87c0,-1.01 -1.72,-1.85 -3.86,-1.85c-2.11,0 -3.82,0.84 -3.82,1.85z" id="path213"/>
   <path d="m243.04,380.01c0,0.53 0.88,0.96 1.99,0.96s2.02,-0.44 2.02,-0.96c0,-0.53 -0.92,-0.96 -2.02,-0.96s-1.99,0.43 -1.99,0.96z" fill="#fff" id="path215"/>
   <path d="m253.74,369.31c0,1.04 1.72,1.88 3.82,1.88c2.14,0 3.86,-0.84 3.86,-1.88c0,-1.01 -1.72,-1.85 -3.86,-1.85c-2.11,0 -3.82,0.84 -3.82,1.85z" id="path217"/>
   <path d="m255.27,369.14c0,0.53 0.88,0.96 1.99,0.96s2.02,-0.43 2.02,-0.96s-0.92,-0.96 -2.02,-0.96s-1.99,0.43 -1.99,0.96z" fill="#fff" id="path219"/>
   <path d="m265.97,357.68c0,1.01 1.72,1.85 3.82,1.85c2.14,0 3.86,-0.84 3.86,-1.85s-1.72,-1.85 -3.86,-1.85c-2.11,0 -3.82,0.84 -3.82,1.85z" id="path221"/>
   <path d="m267.5,357.51c0,0.53 0.88,0.96 1.99,0.96s2.02,-0.43 2.02,-0.96s-0.92,-0.96 -2.02,-0.96s-1.99,0.43 -1.99,0.96z" fill="#fff" id="path223"/>
   <path d="m278.2,345.04c0,1.01 1.72,1.85 3.82,1.85c2.14,0 3.86,-0.84 3.86,-1.85c0,-1.04 -1.72,-1.87 -3.86,-1.87c-2.11,0 -3.82,0.84 -3.82,1.87z" id="path225"/>
   <path d="m279.73,344.86c0,0.53 0.88,0.96 1.99,0.96s2.02,-0.43 2.02,-0.96c0,-0.55 -0.92,-0.98 -2.02,-0.98s-1.99,0.43 -1.99,0.98z" fill="#fff" id="path227"/>
   <path d="m290.43,333.88c0,1.04 1.72,1.88 3.82,1.88c2.14,0 3.86,-0.84 3.86,-1.88c0,-1 -1.72,-1.84 -3.86,-1.84c-2.11,0 -3.82,0.84 -3.82,1.84z" id="path229"/>
   <path d="m291.96,333.7c0,0.53 0.88,0.96 1.99,0.96s2.02,-0.43 2.02,-0.96c0,-0.53 -0.92,-0.96 -2.02,-0.96s-1.99,0.43 -1.99,0.96z" fill="#fff" id="path231"/>
   <path d="m302.66,321.75c0,1.03 1.72,1.87 3.82,1.87c2.14,0 3.86,-0.84 3.86,-1.87c0,-1.01 -1.72,-1.85 -3.86,-1.85c-2.11,0 -3.82,0.84 -3.82,1.85z" id="path233"/>
   <path d="m304.19,321.56c0,0.53 0.88,0.96 1.99,0.96s2.02,-0.43 2.02,-0.96c0,-0.53 -0.92,-0.96 -2.02,-0.96s-1.99,0.43 -1.99,0.96z" fill="#fff" id="path235"/>
   <path d="m314.89,309.86c0,1 1.72,1.84 3.82,1.84c2.14,0 3.86,-0.84 3.86,-1.84c0,-1.04 -1.72,-1.85 -3.86,-1.85c-2.11,0 -3.82,0.81 -3.82,1.85z" id="path237"/>
   <path d="m316.42,309.68c0,0.53 0.88,0.96 1.99,0.96s2.02,-0.43 2.02,-0.96c0,-0.53 -0.92,-0.96 -2.02,-0.96s-1.99,0.43 -1.99,0.96z" fill="#fff" id="path239"/>
   <path d="m327.12,297.46c0,1.01 1.72,1.85 3.82,1.85c2.14,0 3.86,-0.83 3.86,-1.85c0,-1.03 -1.72,-1.87 -3.86,-1.87c-2.11,0 -3.82,0.84 -3.82,1.87z" id="path241"/>
   <path d="m328.65,297.28c0,0.53 0.88,0.96 1.99,0.96s2.02,-0.43 2.02,-0.96c0,-0.55 -0.92,-0.98 -2.02,-0.98s-1.99,0.43 -1.99,0.98z" fill="#fff" id="path243"/>
   <path d="m339.35,286.31c0,1.03 1.72,1.87 3.82,1.87c2.14,0 3.86,-0.84 3.86,-1.87c0,-1.01 -1.72,-1.85 -3.86,-1.85c-2.11,0 -3.82,0.84 -3.82,1.85z" id="path245"/>
   <path d="m340.88,286.14c0,0.53 0.88,0.96 1.99,0.96s2.02,-0.42 2.02,-0.96s-0.92,-0.96 -2.02,-0.96s-1.99,0.43 -1.99,0.96z" fill="#fff" id="path247"/>
   <path d="m351.58,272.91c0,1.04 1.72,1.87 3.82,1.87c2.14,0 3.86,-0.83 3.86,-1.87c0,-1.01 -1.72,-1.85 -3.86,-1.85c-2.11,0 -3.82,0.84 -3.82,1.85z" id="path249"/>
   <path d="m353.11,272.73c0,0.53 0.88,0.96 1.99,0.96s2.02,-0.43 2.02,-0.96c0,-0.53 -0.92,-0.96 -2.02,-0.96s-1.99,0.43 -1.99,0.96z" fill="#fff" id="path251"/>
   <path d="m363.81,259.5c0,1.01 1.72,1.85 3.82,1.85c2.14,0 3.86,-0.84 3.86,-1.85c0,-1.04 -1.72,-1.85 -3.86,-1.85c-2.11,0 -3.82,0.81 -3.82,1.85z" id="path253"/>
   <path d="m365.34,259.33c0,0.53 0.88,0.96 1.99,0.96s2.02,-0.43 2.02,-0.96c0,-0.53 -0.92,-0.96 -2.02,-0.96s-1.99,0.43 -1.99,0.96z" fill="#fff" id="path255"/>
   <path d="m376.04,247.87c0,1.01 1.72,1.85 3.82,1.85c2.14,0 3.86,-0.84 3.86,-1.85c0,-1.04 -1.72,-1.87 -3.86,-1.87c-2.11,0 -3.82,0.83 -3.82,1.87z" id="path257"/>
   <path d="m377.57,247.66c0,0.55 0.88,0.99 1.99,0.99s2.02,-0.44 2.02,-0.99c0,-0.53 -0.92,-0.96 -2.02,-0.96s-1.99,0.44 -1.99,0.96z" fill="#fff" id="path259"/>
   <path d="m388.27,235.95c0,1.04 1.72,1.88 3.82,1.88c2.14,0 3.86,-0.84 3.86,-1.88c0,-1.01 -1.72,-1.84 -3.86,-1.84c-2.11,0 -3.82,0.83 -3.82,1.84z" id="path261"/>
   <path d="m389.8,235.78c0,0.53 0.88,0.96 1.99,0.96s2.02,-0.43 2.02,-0.96c0,-0.53 -0.92,-0.96 -2.02,-0.96s-1.99,0.44 -1.99,0.96z" fill="#fff" id="path263"/>
   <path d="m400.5,224.07c0,1.04 1.72,1.88 3.82,1.88c2.14,0 3.86,-0.84 3.86,-1.88c0,-1.01 -1.72,-1.84 -3.86,-1.84c-2.11,0 -3.82,0.83 -3.82,1.84z" id="path265"/>
   <path d="m402.03,223.89c0,0.53 0.88,0.96 1.99,0.96s2.02,-0.43 2.02,-0.96c0,-0.53 -0.92,-0.96 -2.02,-0.96s-1.99,0.44 -1.99,0.96z" fill="#fff" id="path267"/>
   <path d="m189.69,473.44c-0.42,0.81 -1.01,1.57 -1.74,2.56c-0.74,0.91 -1.68,1.92 -2.73,3.03l0,10.21c2.23,0.25 3.92,1.15 5.42,2.86c1.38,1.67 2.45,4.07 3.08,7.21c15.81,-1.22 28.68,-2.53 39.19,-3.84c10.37,-1.36 18.41,-2.2 23.18,-4.14c4.68,-1.95 6.36,-4.45 5.04,-7.51c-3.61,-2.76 -7.3,-4.61 -11.22,-5.92c-3.88,-1.24 -8.68,-0.58 -12.17,-1.74c-3.67,-1.24 -6.6,-3.19 -9.27,-5.74c-12.93,1.01 -25.86,2.02 -38.8,3.03z" fill="#00ff7f" id="path269"/>
   <path d="m232.92,468.79c0.22,1.55 0.92,2.56 3.89,3.52c2.9,0.8 9.96,0.45 13.88,1.77c3.76,1.24 5.87,4.85 9.29,6.07c3.49,1.11 8.26,1.74 11.38,1.11c3.02,-0.71 6.42,-2.56 6.75,-4.96c0.19,-2.47 -1.59,-7.53 -5.2,-9.41c-3.61,-1.9 -11.34,-1.14 -16.23,-1.92c-5.17,-0.91 -9.76,-2.73 -13.52,-3.03c-3.73,-0.28 -6.6,0.07 -8.28,1.26c-1.72,1.16 -2.33,3.97 -1.96,5.59z" fill="#7fff00" id="path271"/>
   <path d="m255.92,460.64c3.02,-4.14 6.27,-6.35 9.84,-6.7c3.52,-0.33 7,3.36 11.41,4.63c4.43,1.11 11.16,0.65 14.85,2.25c3.52,1.62 5.75,4.5 6.57,7.19c0.8,2.5 1.22,6.9 -1.56,8.14c-2.87,1.24 -7.97,0.93 -15.44,-0.81c-0.08,-4.78 -1.8,-8.12 -5.01,-10.22c-3.33,-2.07 -11.07,-1.54 -14.49,-2.23c-3.49,-0.81 -5.5,-1.47 -6.17,-2.25z" fill="#7fff00" id="path273"/>
   <path d="m279.27,454.27c0.7,-1.19 1.93,-1.97 3.67,-2.26c1.68,-0.32 3.42,-0.71 6.76,0.33c3.27,0.89 8.68,4.33 12.93,5.44c4.13,1.09 9.66,-0.27 11.99,1.26c2.23,1.52 2.11,5.54 1.53,7.66c-0.7,1.97 -2.88,3.92 -5.2,4.48c-2.35,0.55 -5.08,0.11 -8.5,-1.26c-0.65,-4.12 -2.35,-7.03 -5.01,-9.1c-2.79,-2.1 -8.16,-1.97 -11.19,-3.03c-3.03,-1.11 -5.35,-2.26 -6.97,-3.51z" fill="#7fff00" id="path275"/>
  </g>
 </g>
</svg>