<?xml version="1.0"?>
<svg xmlns:rdf="http://www.w3.org/1999/02/22-rdf-syntax-ns#" xmlns="http://www.w3.org/2000/svg" xmlns:cc="http://web.resource.org/cc/" xmlns:xlink="http://www.w3.org/1999/xlink" xmlns:dc="http://purl.org/dc/elements/1.1/" xmlns:svg="http://www.w3.org/2000/svg" id="svg2" viewBox="0 0 490.94 722.699" version="1.0">
  <g id="g3930" stroke="#000" stroke-width=".036" stroke-miterlimit="10">
    <path id="path15" d="m51.776 170.77l-1.944 251.09c-4.536 4.65-7.272 8.79-8.064 12.71-0.864 3.82 0.216 7.27 3.096 10.37-3.132 3.1-4.536 5.69-4.644 8.06-0.072 2.31 1.296 4.22 4.248 5.87l-2.304 141.91c-2.664 1.59-4.428 3.39-5.004 5.01-0.612 1.58-0.324 3.38 1.152 5-2.664 2.41-4.032 4.75-4.248 7.31-0.216 2.48 0.864 5.04 3.096 7.67-4.212 5.9-8.064 10.48-11.556 13.86-3.564 3.31-6.768 5.36-9.612 6.15-4.536 0.15-7.56 1.12-9.216 3.06-1.728 1.95-1.512 5.69-0.756 8.46 0.72 2.7 2.34 5.22 5.004 7.71l-0.396 19.58c-4.86 1.26-8.064 2.81-9.612 4.65-1.656 1.69-1.008 3.74 0 6.15 0.864 2.41 2.7 4.97 5.364 8.07l42.696 19.22c25.668-0.36 46.404-0.82 63.464-1.54 16.96-0.69 29.56-1.48 37.66-2.67 7.92-1.3 10.98-2.91 9.61-5 5.26-1.01 13.54-2.52 25.38-4.25 11.85-1.87 34.85-4.47 45-6.52 9.83-2.05 12.06-3.38 14.62-5.79 2.55-2.42 2.81-5.4 0.75-8.82 5.91-0.08 10.23-0.98 13.11-2.31 2.81-1.44 4.03-3.49 3.81-6.16 5.55 1.7 9.94 2.63 13.47 2.67 3.38-0.04 5.22-0.76 7.31-2.3 2.08-1.59 3.7-3.89 5-6.92 2.19 2.2 4.97 2.63 8.46 1.16 3.42-1.52 10.44-6.05 12.31-10.01 1.62-4 0.18-10.7-1.55-13.83-1.76-3.16-5.5-4.5-8.46-5.4-3.02-0.97-6.37-0.1-9.21-0.75-2.92-0.83-5.26-2.49-7.71-3.86-2.55-1.4-4.68-2.88-6.91-4.42 6.59-12.53 14.4-27.26 23.83-45 9.36-17.9 19.26-37.44 32.33-60.73 13.03-23.37 26.53-45.44 45.76-78.16 19.29-32.98 50.47-84.85 68.83-117.29 18.15-32.51 32.22-58.1 39.6-75.38 7.16-17.14 5.9-17.9 3.85-26.72-2.16-8.89-9.07-20.66-16.16-26.17-7.16-5.58-16.85-6.59-26.14-6.91-9.39-0.43-17.13-0.61-29.63 4.61-12.7 5.22-31.06 20.73-45.36 26.53-14.29 5.65-26.24 8.46-39.6 7.31-13.5-1.33-29.37-6.37-39.99-14.98-10.51-8.64-16.09-19.15-22.72-36.54-6.77-17.75-10.08-49.14-17.28-68.07-7.38-18.867-16.49-32.583-25.77-44.211-9.33-11.736-18-18.72-29.24-25.38-11.44-6.768-26.35-11.592-38.05-14.616-11.63-3.132-21.81-4.104-31.14-3.456 1.69-2.052 3.64-4.032 6.12-5.796 2.41-1.908 5.19-3.384 8.46-4.968 1.48-1.26 2.2-2.628 2.7-4.248 0.36-1.584 0.29-3.42-0.36-5.364-5.97-2.916-14-5.184-24.62-6.948-10.77-1.763-23.906-4.067-38.846-3.455-15.084 0.54-31.5 2.628-50.364 6.552-2.124 3.78-3.204 6.984-3.096 9.612 0.036 2.628 1.188 4.68 3.456 6.156 4.356 1.224 7.56 2.844 10.008 5.004 2.376 2.088 3.744 4.644 4.248 7.668l-1.944 119.23 7.704 16.53zm61.924-4.54c7.27-2.7 13.78-3.67 19.98-3.06 6.08 0.61 10.29 1.12 16.52 6.91 6.08 5.73 13.54 15.81 20.41 27.33 6.84 11.52 12.6 28.94 20.74 40.75 8.06 11.63 15.95 19.8 27.68 28.83 11.77 8.93 26.71 19.08 42.3 24.63 15.55 5.36 35.32 7.31 50.01 8.06 14.43 0.72 23.47-0.75 36.54-3.45 13.14-2.74 27.68-7.67 41.54-12.71 13.75-5.15 26.93-10.95 40.35-17.68-18.86 22.93-38.44 46.69-59.58 72.4-21.23 25.77-45 54.5-66.56 80.75-21.63 26.13-41.33 50.72-62.28 74.59-21.2 23.69-43.52 46.4-63.07 66.64-19.48 20.16-36.97 37.65-53.06 53.46-0.11-1.44-0.72-2.45-1.55-3.46-0.87-0.97-2.23-1.8-3.82-2.34 1.15-1.98 1.41-3.42 0.76-4.61-0.65-1.11-2.23-1.98-4.61-2.3l1.15-144.97c2.85-2.38 4.25-4.68 4.21-6.92-0.14-2.3-1.58-4.39-4.6-6.55 2.8-2.05 3.56-4.61 2.7-7.67-1.01-3.2-3.78-6.62-8.46-10.8l-1.16-251.39c1.26-2.12 2.56-4.28 3.86-6.44z"/>
    <path id="path17" d="m54.116 177.17c1.26-2.3 3.78-4.1 7.704-5.54 3.924-1.48 9.756-2.88 15.696-3.1 5.976-0.36 14.436-0.07 19.404 1.55 4.75 1.55 7.88 4.21 9.25 7.99l-0.32 244.01c-2.45 2.92-6.41 4.83-12.314 5.87-5.94 1.01-16.128 1.48-22.788 0.29-6.66-1.3-12.312-3.82-16.956-7.71 0.108-81.1 0.216-162.21 0.324-243.36z" fill="#fff"/>
    <path id="path19" d="m56.888 184.88c1.152-1.66 2.124-2.31 3.06-1.55 0.864 0.65 1.584-0.79 2.16 5.54 0.468 6.34 1.26 15.59 1.26 32.33-0.108 16.81-1.08 41.47-1.26 67.18-0.18 25.59-0.072 65.05 0.324 85.32 0.288 19.9 1.548 26.67 1.548 34.2-0.108 7.41-1.152 8.64-1.872 10.47-0.9 1.77-2.016 0.72-2.772 0.33-0.792-0.54-1.404-1.62-1.836-3.39 0.468 2.38 1.188 4.07 2.16 5.22 0.936 1.15 2.196 2.09 3.384 1.55 1.08-0.68 2.808 1.51 3.096-5.22 0.216-6.91-1.224-20.19-1.548-35.42-0.396-15.52-0.648-35.21-0.612-55.77-0.036-20.59 0.54-46.65 0.612-66.24-0.072-19.62-0.648-37.65-0.612-50.22-0.072-12.67 0.972-19.55 0.612-24.66-0.468-5.04-1.584-4.75-2.772-5.54-1.26-1.01-3.492-1.01-4.32 0-0.828 0.97-1.08 2.88-0.612 5.87z"/>
    <path id="path21" d="m71.036 179.12c1.224-1.8 2.16-2.34 3.096-1.62 0.864 0.61 1.584-0.79 2.16 5.79 0.504 6.66 1.188 16.31 1.224 33.81-0.144 17.57-1.008 43.34-1.224 70.23-0.18 26.79-0.072 68.04 0.324 89.21 0.216 20.88 1.512 27.9 1.512 35.79-0.144 7.77-1.08 8.96-1.836 10.94-0.936 1.76-1.908 0.9-2.772 0.32-0.792-0.57-1.404-1.76-1.836-3.56 0.54 2.45 1.116 4.28 2.124 5.51 0.9 1.22 2.268 2.12 3.42 1.58 1.116-0.64 2.736 1.52 3.06-5.47 0.216-7.2-1.224-21.17-1.548-37.05-0.396-16.09-0.648-36.86-0.612-58.28-0.036-21.53 0.54-48.78 0.612-69.26-0.072-20.56-0.648-39.32-0.612-52.53-0.072-13.14 0.972-20.52 0.612-25.74-0.468-5.29-1.584-4.86-2.772-5.79-1.296-1.05-3.42-1.05-4.284 0-0.828 1.04-1.044 2.99-0.648 6.12z"/>
    <path id="path23" d="m86.768 181.96c1.224-1.65 2.16-2.3 3.096-1.55 0.792 0.65 1.548-0.86 2.124 5.62 0.468 6.37 1.26 15.91 1.26 32.8-0.108 17.02-1.08 42.04-1.26 68.11-0.18 26.03-0.072 65.99 0.324 86.54 0.288 20.27 1.548 26.96 1.548 34.67-0.108 7.52-1.152 8.75-1.872 10.62-0.9 1.8-2.016 0.79-2.772 0.32-0.792-0.54-1.404-1.69-1.836-3.45 0.468 2.41 1.188 4.14 2.16 5.32 0.936 1.16 2.196 2.09 3.384 1.55 1.08-0.72 2.808 1.59 3.096-5.29 0.216-7.09-1.224-20.41-1.548-35.93-0.396-15.62-0.648-35.82-0.612-56.55-0.036-20.81 0.54-47.42 0.612-67.18-0.072-19.91-0.648-38.12-0.612-50.9-0.072-12.82 0.972-19.8 0.612-24.99-0.468-5.07-1.584-4.82-2.772-5.65-1.26-1.01-3.492-1.01-4.32 0-0.828 0.97-1.08 2.95-0.612 5.94z"/>
    <path id="path25" d="m99.08 191.03c1.22-1.62 2.16-2.05 3.1-1.43 0.86 0.57 1.58-0.8 2.16 5.18 0.5 5.98 1.18 14.65 1.22 30.35-0.14 15.77-1.01 38.91-1.22 63.03-0.18 24.09-0.04 61.1 0.28 80.07 0.29 18.75 1.55 24.91 1.55 32.07-0.14 6.91-1.08 8.1-1.83 9.83-0.83 1.58-1.98 0.76-2.78 0.29-0.79-0.54-1.36-1.55-1.868-3.17 0.468 2.19 1.188 3.78 2.158 4.89 0.94 1.12 2.2 1.88 3.39 1.44 1.08-0.68 2.8 1.48 3.09-4.89 0.22-6.52-1.22-18.94-1.55-33.23-0.39-14.51-0.64-33.12-0.61-52.35-0.03-19.26 0.54-43.81 0.61-62.13-0.07-18.47-0.64-35.28-0.61-47.13-0.07-11.84 0.97-18.39 0.61-23.11-0.46-4.71-1.58-4.46-2.77-5.22-1.26-0.93-3.49-0.93-4.318 0-0.828 0.91-1.08 2.74-0.612 5.51z"/>
    <path id="path27" d="m52.568 424.78c5.148 2.74 10.44 4.68 16.02 5.83s10.404 1.52 17.244 0.94c6.768-0.69 14.288-2.52 23.108-5.22 2.96 1.37 4.76 3.17 5.55 5.83 0.75 2.56 0.25 5.69-1.23 9.54-2.88 2.85-7.81 4.86-15.08 6.19-7.416 1.19-20.016 2.34-28.368 1.52-8.352-0.83-15.3-3.03-21.24-6.45-2.556-1.9-3.996-3.96-4.32-6.15-0.432-2.34 0.756-5.08 2.16-7.09 1.368-1.99 3.421-3.68 6.156-4.94z" fill="#fff"/>
    <path id="path29" d="m47.313 446.64c3.888 2.01 9.288 3.56 16.056 4.64s15.948 2.81 24.624 1.84c8.64-1.19 17.387-3.78 26.817-8.32 2.34 0.32 3.57 1.4 3.67 3.1 0.04 1.69-0.93 3.99-3.06 7.05-8.85 3.03-16.591 5.04-24.043 6.19-7.38 1.16-12.708 1.27-20.016 0.62-7.488-0.8-15.228-2.34-24.048-4.94-2.844-1.65-4.32-3.2-4.284-4.93-0.037-1.76 1.439-3.42 4.284-5.25z" fill="#fff"/>
    <path id="path31" d="m43.316 602.62c3.06 2.31 7.2 4.1 12.96 5.55 5.76 1.4 13.068 2.69 20.952 2.77 7.704-0.15 18.612-1.69 24.952-3.1 6.15-1.48 10.11-3.27 12.02-5.54 1.98 0 3.06 0.46 3.38 1.54 0.29 0.98-0.18 2.56-1.54 4.61-3.71 2.31-8.64 4.11-14.8 5.55-6.372 1.4-14.364 2.7-22.176 2.77-7.776 0-17.496-2.13-23.724-3.06-6.228-1.05-10.512-2.27-13.248-3.39-1.44-1.48-2.052-2.77-1.836-4.03 0.181-1.29 1.152-2.52 3.06-3.67z" fill="#fff"/>
    <path id="path33" d="m39.932 612.16c1.116 1.69 5.076 3.14 12.024 4.32 6.984 1.19 20.772 2.63 29.268 2.77 8.208-0.03 13.968-0.86 20.336-2.48 6.38-1.66 12.14-4.07 17.57-7.38 2.27 2.27 3.49 4.93 3.67 7.99 0.08 3.1-1.22 7.42-2.77 10.19-1.62 2.63-1.65 3.78-6.77 5.54-5.32 1.69-16.484 3.61-24.044 4.32-7.56 0.58-13.608 0.22-20.628-0.93-7.2-1.37-16.56-4.36-21.564-6.48-4.968-2.13-7.596-4.18-8.028-6.16-1.872-2.41-2.556-4.57-2.448-6.48 0.072-1.98 1.332-3.67 3.384-5.22z" fill="#fff"/>
    <path id="path35" d="m39.645 629.41c-2.412 3.02-4.68 5.54-6.804 7.7-2.124 2.01-4.032 3.06-6.156 4.93-2.304 1.8-4.716 3.86-7.38 6.16l33.588 15.4c2.556-2.69 4.716-5.93 6.768-10.15 1.98-4.25 3.672-9.03 5.22-14.79-4.5 0.28-8.676-0.33-12.924-1.84-4.249-1.62-8.353-3.99-12.312-7.41z" fill="#fff"/>
    <path id="path37" d="m70.136 639.88c8.208 0.69 16.092 0.54 24.336-0.29 8.208-0.86 16.088-2.55 24.338-4.93 5.36 3.82 9.57 7.67 12.92 11.7 3.28 3.96 5.55 8.06 6.81 12.31-5.26 1.84-14.51 3.03-28.05 4-13.75 0.83-30.958 1.3-52.99 1.26 4.464-4.68 7.704-9 9.864-12.96 2.16-4.11 2.952-7.67 2.772-11.09z" fill="#fff"/>
    <path id="path39" d="m146.85 661.59c2.99 0.11 4.57 1.01 4.61 3.1 0.04 2.05-1.4 4.89-4.32 8.93-12.96 1.47-26.75 2.66-42.19 3.7-15.481 0.98-31.897 1.69-49.933 2.16-2.124-2.55-3.24-4.86-3.06-6.76 0.036-1.95 1.368-3.64 3.708-4.94 22.932-0.03 41.652-0.5 56.985-1.55 15.34-1.15 26.46-2.51 34.2-4.64z" fill="#fff"/>
    <path id="path41" d="m51.956 665.91c-0.108-0.47-3.24-2.02-9.54-4.93-6.336-2.88-15.588-6.99-28.044-12.32-3.636 0.4-5.544 1.73-5.868 4-0.252 2.3 0.9 5.4 3.996 9.58l37.296 15.69c-1.62-2.7-2.232-5.11-1.836-7.09 0.324-1.98 1.656-3.67 3.996-4.93z" fill="#fff"/>
    <path id="path43" d="m51.021 681.32l-0.288 18.79-35.748-15.09-0.936-18.79 36.972 15.09z" fill="#fff"/>
    <path id="path45" d="m55.34 682.54l-0.324 17.28 89.354-4.03-0.29-16.63-88.74 3.38z" fill="#fff"/>
    <path id="path47" d="m52.892 703.2c-2.808-0.03-4.428 1.19-5.256 3.68-0.72 2.48-0.648 6.08 0.612 11.09 34.236-0.25 59.512-1.01 77.332-2.13 17.6-1.19 23.43-2.88 28.04-4.93 4.43-2.19 0.18-5.55-0.94-7.71-1.15-2.15-3.09-3.95-5.83-5.25-12.85 1.22-26.75 2.16-42.51 3.1-15.88 0.86-32.656 1.58-51.448 2.15z" fill="#fff"/>
    <path id="path49" d="m11.888 686.57c-3.744-0.43-6.048 0.54-6.768 2.77-0.828 2.27-0.108 5.77 2.16 10.77l37.908 16.63c-1.368-4.28-1.548-7.52-0.936-9.86 0.72-2.41 2.232-3.74 4.932-4.28-12.42-5.33-24.84-10.66-37.296-16.03z" fill="#fff"/>
    <path id="path51" d="m46.412 459.09c3.06 2.23 7.776 3.78 14.292 4.79 6.552 0.94 15.192 2.09 24.372 1.11 9.108-1.11 18.644-3.42 29.444-7.31l-1.98 141.81c-2.66 3.2-7.7 5.54-15.404 6.73-7.812 1.19-21.78 1.51-30.528 0.58-8.856-1.08-15.948-3.28-21.852-6.73 0.54-46.98 1.08-93.97 1.656-140.98z" fill="#fff"/>
    <path id="path53" d="m50.012 37.638l-2.016 114.98c7.344-1.8 16.416-2.81 27.648-2.73 11.232-0.08 24.084 0.93 39.236 2.73l3.89-112.43c-10.4-2.912-21.13-4.568-32.614-4.964-11.52-0.396-23.472 0.36-36.144 2.412z" fill="#fff"/>
    <path id="path55" d="m48.536 154.85c7.164-1.58 14.796-2.3 23.04-2.59 8.28-0.18 18.72 0.29 26.172 1.12 7.272 0.68 13.172 1.62 17.712 2.95l-8.5 13.25c-6.55-3.21-13.964-4.86-22.676-4.97s-18.432 1.12-29.304 4.07c-2.124-4.61-4.284-9.22-6.444-13.83z" fill="#fff"/>
    <path id="path57" d="m34.892 20.574c5.436-1.872 13.032-3.312 23.22-4.608 10.08-1.332 24.264-3.564 37.26-2.952 13.028 0.612 25.988 2.52 39.998 6.264l-17.71 15.48c-15.09-2.34-27.832-3.564-39.064-3.672s-20.304 0.684-27.648 2.772c-2.628-4.608-5.328-7.992-7.956-10.152-2.772-2.268-5.328-3.312-8.1-3.132z" fill="#fff"/>
    <path id="path59" d="m34.712 17.082c-1.98-1.44-2.916-2.808-2.952-4.248-0.072-1.548 0.792-2.88 2.592-4.428 18.108-4.428 35.424-6.408 53.065-6.084 17.493 0.288 34.563 2.988 51.623 8.1 1.58 1.224 2.3 2.268 2.02 3.528-0.29 1.188-1.52 2.304-3.68 3.492-17.24-4.896-33.94-7.308-51.223-7.38-17.317 0-34.093 2.16-51.445 7.02z" fill="#fff"/>
    <path id="path61" d="m125.18 35.19c15.7 0.468 29.66 2.556 42.34 6.12 12.6 3.528 23 8.46 33.15 15.336 10.05 6.732 19.05 14.58 27 25.488 7.92 10.944 14.47 23.756 19.95 39.566 5.25 15.84 6.84 38.01 11.98 54.03 5.08 15.77 10.48 29.6 18.72 40.22 8.25 10.54 18.04 18.1 30.35 22.68 12.28 4.28 28.77 5.32 42.37 3.7 13.36-1.65 24.92-7.3 37.73-13.21 12.78-6.08 27.62-18.21 38.38-22.1 10.69-3.85 20.37-2.63 25.16-0.61 4.57 2.01 4.97 7.88 2.45 12.6-2.56 4.64-8.53 9.5-17.78 15.01-4.61-2.13-9.22-2.99-14.12-2.45-4.96 0.54-7.34 1.37-15.04 5.54-7.89 4.14-19.66 13.9-31 19.01-11.48 4.93-25.13 8.57-36.5 10.77-11.38 2.16-18.8 5.18-31 2.12-12.42-3.13-29.3-8.78-42.05-20.84-12.74-12.35-23.4-31.68-33.77-51.88-10.54-20.34-18.72-49.68-28.54-68.44-9.8-18.64-16.35-32.54-29.78-42.944-13.53-10.476-30.13-17.028-50.61-19.656 0.18-10.008 0.39-20.016 0.61-30.06z" fill="#fff"/>
    <path id="path63" d="m124.24 70.686c10.73 0.396 20.38 2.448 29.49 6.444 8.96 3.924 16.13 6.876 24.55 17.208s18.25 29.412 25.45 44.172c7.02 14.69 10.87 29.63 16.56 43.27 5.62 13.5 11.13 26.68 17.21 37.44 6.05 10.66 10.26 18.11 19.01 26.39 8.64 8.1 21.2 17.75 32.83 22.43 11.56 4.57 21.64 6.3 36.22 5.18 14.54-1.29 36.64-6.8 50.32-11.95 13.47-5.18 21.75-14 30.39-18.4 8.49-4.42 15.3-7.27 20.55-7.7 5.08-0.47 8.32 2.23 10.16 4.61 1.69 2.23 1.18 5.33 0.28 8.89-0.93 3.53-2.88 7.38-5.83 11.99-12.96 6.98-27.47 12.89-44.49 18.39-17.1 5.4-38.2 11.96-56.78 13.83-18.72 1.76-36.57 0.86-54-3.39-17.49-4.5-35.64-12.02-49.71-22.71-14-10.91-25.16-28.08-34.06-41.11-9-13-13.78-26.64-19.65-36.22-5.94-9.61-10.15-15.88-15.95-21.17-5.98-5.43-12.78-8.89-19.04-11.05-6.38-2.3-12.28-2.88-18.4-2.16 1.62-28.12 3.24-56.232 4.89-84.384z" fill="#fff"/>
    <path id="path65" d="m462.61 206.66c5.58 1.51 8.89 5.15 9.79 11.05 0.83 5.9-0.83 14.72-4.28 24.23-3.5 9.39-5.58 13.75-16.28 31.93-10.9 18.25-32 52.6-47.88 76.39-15.87 23.62-29.19 39.75-46.62 64.76-17.6 25.03-41 60.41-57.42 84.39-16.38 23.83-26.71 38.48-39.88 58-13.22 19.51-26.18 39.7-38.49 58.06-12.35 18.22-23.83 34.67-34.99 50.33l-31.32 3.1c1.04-2.13 1.4-3.93 0.94-5.55-0.51-1.69-1.55-3.02-3.68-3.99-2.23-1.01-5.36-1.77-9.54-2.13-1.4-4.17-3.85-8.13-7.05-12.27-3.39-4.18-7.38-8.14-12.57-12.28 1.91-4.28 3.14-7.48 3.68-10.15 0.54-2.63 0.28-4.46-0.62-5.51 15.74-13.96 34.13-31.89 56.16-54.61 22.04-22.93 53.1-56.7 74.88-81.03 21.6-24.38 38.24-44.54 54.33-63.83 15.95-19.33 28.04-34.67 41.43-51.01 13.36-16.35 25.31-30.82 38.34-46.34 13.04-15.8 30.24-34.92 38.99-46.65 8.46-11.63 10.66-16.56 12.28-22.72 1.65-6.23 0.79-10.98-2.45-14.4 7.34-2.84 12.82-6.73 16.56-11.66 3.67-5.04 5.62-10.95 5.69-18.11z" fill="#fff"/>
    <path id="path67" d="m476.94 218.61c3.63 3.49 6.04 7.31 7.38 11.99 1.26 4.53 3.52 5.43 0.28 15.33-3.34 9.9-8.28 21.14-20.23 43.56-12.24 22.5-37.11 64.84-51.59 89.93-14.5 24.81-17.02 28.37-34.34 58.32-17.42 30.06-50.26 86.65-69.05 120.06-18.79 33.16-32.94 58.57-42.98 77.62-2.48-0.4-4.68-0.04-6.73 0.93-2.09 0.98-3.89 2.56-5.55 4.9-4.46-1.33-8.06-1.84-11.34-1.51-3.27 0.18-5.47 1.26-7.99 3.38-2.59 2.13-5.04 5.29-7.34 9.5-5.33-0.64-9.43-0.89-12.89-0.61-3.38 0.15-5 0.11-7.38 2.13-2.52 1.94-5.08 5.22-7.67 9.83l-8.28 0.32c21.46-29.38 41.62-58.21 62-87.77 20.26-29.74 40.82-61.92 58.6-88.38 17.57-26.49 28.59-42.98 46.66-68.76 18.1-25.96 46.04-63 61.06-84.74 14.68-21.68 20.22-31.83 27.6-44.21 7.35-12.42 12.32-21.17 16.57-29.45 4.03-8.28 6.48-12.89 8.6-19.94 2.16-7.13 3.74-14.47 4.61-22.43z" fill="#fff"/>
    <path id="path69" d="m133.06 58.122h2.88v579.1h-2.88v-579.1z"/>
    <path id="path71" d="m147.46 59.562h2.88v564.7h-2.88v-564.7z"/>
    <path id="path73" d="m161.86 64.962h2.88v543.06h-2.88v-543.06z"/>
    <path id="path75" d="m176.26 72.522h2.88v518.58h-2.88v-518.58z"/>
    <path id="path77" d="m190.66 84.762h2.88v489.78h-2.88v-489.78z"/>
    <path id="path79" d="m205.06 103.88h2.88v454.1h-2.88v-454.1z"/>
    <path id="path81" d="m219.46 129.44h2.88v409.79h-2.88v-409.79z"/>
    <path id="path83" d="m233.86 162.23h2.88v360.44h-2.88v-360.44z"/>
    <path id="path85" d="m248.26 196.07h2.88v309.68h-2.88v-309.68z"/>
    <path id="path87" d="m262.66 220.19h2.88v268.28h-2.88v-268.28z"/>
    <path id="path89" d="m277.06 238.23h2.88v233.64h-2.88v-233.64z"/>
    <path id="path91" d="m291.46 247.95h2.88v205.56h-2.88v-205.56z"/>
    <path id="path93" d="m305.86 254.43h2.88v182.88h-2.88v-182.88z"/>
    <path id="path95" d="m320.26 258.03h2.88v162.36h-2.88v-162.36z"/>
    <path id="path97" d="m334.66 257.31h2.88v146.12h-2.88v-146.12z"/>
    <path id="path99" d="m349.06 255.15h2.88v130.28h-2.88v-130.28z"/>
    <path id="path101" d="m363.46 250.47h2.88v116.6h-2.88v-116.6z"/>
    <path id="path103" d="m377.86 244.35h2.88v105.08h-2.88v-105.08z"/>
    <path id="path105" d="m392.26 236.79h2.88v96.05h-2.88v-96.05z"/>
    <path id="path107" d="m406.66 229.95h2.88v85.61h-2.88v-85.61z"/>
    <path id="path109" d="m129.68 56.502c0 2.088 2.02 3.78 4.5 3.78 2.52 0 4.54-1.692 4.54-3.78s-2.02-3.78-4.54-3.78c-2.48 0-4.5 1.692-4.5 3.78z"/>
    <path id="path111" d="m131.48 56.142c0 1.08 1.04 1.944 2.34 1.944s2.38-0.864 2.38-1.944c0-1.116-1.08-1.98-2.38-1.98s-2.34 0.864-2.34 1.98z" fill="#fff"/>
    <path id="path113" d="m144.08 60.102c0 2.088 2.02 3.78 4.5 3.78 2.52 0 4.54-1.692 4.54-3.78s-2.02-3.78-4.54-3.78c-2.48 0-4.5 1.692-4.5 3.78z"/>
    <path id="path115" d="m145.88 59.742c0 1.08 1.04 1.944 2.34 1.944s2.38-0.864 2.38-1.944c0-1.116-1.08-1.979-2.38-1.979s-2.34 0.863-2.34 1.979z" fill="#fff"/>
    <path id="path117" d="m158.48 65.862c0 2.088 2.02 3.78 4.5 3.78 2.52 0 4.54-1.692 4.54-3.78s-2.02-3.78-4.54-3.78c-2.48 0-4.5 1.692-4.5 3.78z"/>
    <path id="path119" d="m160.28 65.502c0 1.08 1.04 1.98 2.34 1.98s2.38-0.9 2.38-1.98-1.08-1.98-2.38-1.98-2.34 0.9-2.34 1.98z" fill="#fff"/>
    <path id="path121" d="m172.88 73.062c0 2.088 2.02 3.78 4.5 3.78 2.52 0 4.54-1.692 4.54-3.78s-2.02-3.78-4.54-3.78c-2.48 0-4.5 1.692-4.5 3.78z"/>
    <path id="path123" d="m174.68 72.702c0 1.08 1.04 1.98 2.34 1.98s2.38-0.9 2.38-1.98-1.08-1.98-2.38-1.98-2.34 0.9-2.34 1.98z" fill="#fff"/>
    <path id="path125" d="m187.28 86.382c0 2.088 2.02 3.816 4.5 3.816 2.52 0 4.54-1.728 4.54-3.816s-2.02-3.78-4.54-3.78c-2.48 0-4.5 1.692-4.5 3.78z"/>
    <path id="path127" d="m189.08 86.022c0 1.08 1.04 1.98 2.34 1.98s2.38-0.9 2.38-1.98-1.08-1.944-2.38-1.944-2.34 0.864-2.34 1.944z" fill="#fff"/>
    <path id="path129" d="m201.68 105.14c0 2.09 2.02 3.78 4.5 3.78 2.52 0 4.54-1.69 4.54-3.78s-2.02-3.78-4.54-3.78c-2.48 0-4.5 1.69-4.5 3.78z"/>
    <path id="path131" d="m203.48 104.74c0 1.12 1.04 1.98 2.34 1.98s2.38-0.86 2.38-1.98c0-1.08-1.08-1.94-2.38-1.94s-2.34 0.86-2.34 1.94z" fill="#fff"/>
    <path id="path133" d="m216.08 129.98c0 2.09 2.02 3.78 4.5 3.78 2.52 0 4.54-1.69 4.54-3.78s-2.02-3.78-4.54-3.78c-2.48 0-4.5 1.69-4.5 3.78z"/>
    <path id="path135" d="m217.88 129.62c0 1.08 1.04 1.98 2.34 1.98s2.38-0.9 2.38-1.98-1.08-1.98-2.38-1.98-2.34 0.9-2.34 1.98z" fill="#fff"/>
    <path id="path137" d="m230.48 164.21c0 2.09 2.02 3.78 4.5 3.78 2.52 0 4.54-1.69 4.54-3.78 0-2.08-2.02-3.78-4.54-3.78-2.48 0-4.5 1.7-4.5 3.78z"/>
    <path id="path139" d="m232.28 163.82c0 1.11 1.04 1.98 2.34 1.98s2.38-0.87 2.38-1.98c0-1.08-1.08-1.95-2.38-1.95s-2.34 0.87-2.34 1.95z" fill="#fff"/>
    <path id="path141" d="m244.88 196.61c0 2.09 2.02 3.78 4.5 3.78 2.52 0 4.54-1.69 4.54-3.78 0-2.08-2.02-3.78-4.54-3.78-2.48 0-4.5 1.7-4.5 3.78z"/>
    <path id="path143" d="m246.68 196.25c0 1.08 1.04 1.98 2.34 1.98s2.38-0.9 2.38-1.98-1.08-1.98-2.38-1.98-2.34 0.9-2.34 1.98z" fill="#fff"/>
    <path id="path145" d="m259.28 220.05c0 2.09 2.02 3.78 4.5 3.78 2.52 0 4.54-1.69 4.54-3.78 0-2.12-2.02-3.82-4.54-3.82-2.48 0-4.5 1.7-4.5 3.82z"/>
    <path id="path147" d="m261.08 219.65c0 1.08 1.04 1.98 2.34 1.98s2.38-0.9 2.38-1.98-1.08-1.94-2.38-1.94-2.34 0.86-2.34 1.94z" fill="#fff"/>
    <path id="path149" d="m273.68 238.41c0 2.09 2.02 3.78 4.5 3.78 2.52 0 4.54-1.69 4.54-3.78s-2.02-3.78-4.54-3.78c-2.48 0-4.5 1.69-4.5 3.78z"/>
    <path id="path151" d="m275.48 238.01c0 1.12 1.04 1.98 2.34 1.98s2.38-0.86 2.38-1.98c0-1.08-1.08-1.94-2.38-1.94s-2.34 0.86-2.34 1.94z" fill="#fff"/>
    <path id="path153" d="m288.08 247.77c0 2.09 2.02 3.78 4.5 3.78 2.52 0 4.54-1.69 4.54-3.78s-2.02-3.78-4.54-3.78c-2.48 0-4.5 1.69-4.5 3.78z"/>
    <path id="path155" d="m289.88 247.41c0 1.08 1.04 1.94 2.34 1.94s2.38-0.86 2.38-1.94c0-1.12-1.08-1.98-2.38-1.98s-2.34 0.86-2.34 1.98z" fill="#fff"/>
    <path id="path157" d="m302.48 255.69c0 2.09 2.02 3.78 4.5 3.78 2.52 0 4.54-1.69 4.54-3.78s-2.02-3.78-4.54-3.78c-2.48 0-4.5 1.69-4.5 3.78z"/>
    <path id="path159" d="m304.28 255.33c0 1.08 1.04 1.94 2.34 1.94s2.38-0.86 2.38-1.94c0-1.12-1.08-1.98-2.38-1.98s-2.34 0.86-2.34 1.98z" fill="#fff"/>
    <path id="path161" d="m316.88 258.21c0 2.09 2.02 3.78 4.5 3.78 2.52 0 4.54-1.69 4.54-3.78s-2.02-3.78-4.54-3.78c-2.48 0-4.5 1.69-4.5 3.78z"/>
    <path id="path163" d="m318.68 257.85c0 1.08 1.04 1.94 2.34 1.94s2.38-0.86 2.38-1.94c0-1.12-1.08-1.98-2.38-1.98s-2.34 0.86-2.34 1.98z" fill="#fff"/>
    <path id="path165" d="m331.28 256.41c0 2.09 2.02 3.78 4.5 3.78 2.52 0 4.54-1.69 4.54-3.78s-2.02-3.78-4.54-3.78c-2.48 0-4.5 1.69-4.5 3.78z"/>
    <path id="path167" d="m333.08 256.05c0 1.08 1.04 1.94 2.34 1.94s2.38-0.86 2.38-1.94c0-1.12-1.08-1.98-2.38-1.98s-2.34 0.86-2.34 1.98z" fill="#fff"/>
    <path id="path169" d="m345.68 254.97c0 2.09 2.02 3.78 4.5 3.78 2.52 0 4.54-1.69 4.54-3.78s-2.02-3.78-4.54-3.78c-2.48 0-4.5 1.69-4.5 3.78z"/>
    <path id="path171" d="m347.48 254.61c0 1.08 1.04 1.94 2.34 1.94s2.38-0.86 2.38-1.94c0-1.12-1.08-1.98-2.38-1.98s-2.34 0.86-2.34 1.98z" fill="#fff"/>
    <path id="path173" d="m360.08 250.29c0 2.09 2.02 3.78 4.5 3.78 2.52 0 4.54-1.69 4.54-3.78s-2.02-3.78-4.54-3.78c-2.48 0-4.5 1.69-4.5 3.78z"/>
    <path id="path175" d="m361.88 249.93c0 1.08 1.04 1.94 2.34 1.94s2.38-0.86 2.38-1.94c0-1.12-1.08-1.98-2.38-1.98s-2.34 0.86-2.34 1.98z" fill="#fff"/>
    <path id="path177" d="m374.48 245.25c0 2.09 2.02 3.78 4.5 3.78 2.52 0 4.54-1.69 4.54-3.78s-2.02-3.78-4.54-3.78c-2.48 0-4.5 1.69-4.5 3.78z"/>
    <path id="path179" d="m376.28 244.89c0 1.08 1.04 1.94 2.34 1.94s2.38-0.86 2.38-1.94c0-1.12-1.08-1.98-2.38-1.98s-2.34 0.86-2.34 1.98z" fill="#fff"/>
    <path id="path181" d="m388.88 236.25c0 2.09 2.02 3.78 4.5 3.78 2.52 0 4.54-1.69 4.54-3.78s-2.02-3.78-4.54-3.78c-2.48 0-4.5 1.69-4.5 3.78z"/>
    <path id="path183" d="m390.68 235.85c0 1.12 1.04 1.98 2.34 1.98s2.38-0.86 2.38-1.98c0-1.08-1.08-1.94-2.38-1.94s-2.34 0.86-2.34 1.94z" fill="#fff"/>
    <path id="path185" d="m403.28 230.13c0 2.09 2.02 3.78 4.5 3.78 2.52 0 4.54-1.69 4.54-3.78s-2.02-3.78-4.54-3.78c-2.48 0-4.5 1.69-4.5 3.78z"/>
    <path id="path187" d="m405.08 229.73c0 1.08 1.04 1.98 2.34 1.98s2.38-0.9 2.38-1.98-1.08-1.94-2.38-1.94-2.34 0.86-2.34 1.94z" fill="#fff"/>
    <path id="path189" d="m129.68 635.99c0 1.44 2.02 2.63 4.5 2.63 2.52 0 4.54-1.19 4.54-2.63 0-1.47-2.02-2.63-4.54-2.63-2.48 0-4.5 1.16-4.5 2.63z"/>
    <path id="path191" d="m131.48 635.74c0 0.76 1.04 1.37 2.34 1.37s2.38-0.61 2.38-1.37c0-0.75-1.08-1.37-2.38-1.37s-2.34 0.62-2.34 1.37z" fill="#fff"/>
    <path id="path193" d="m144.08 624.83c0 1.44 2.02 2.63 4.5 2.63 2.52 0 4.54-1.18 4.54-2.63 0-1.47-2.02-2.63-4.54-2.63-2.48 0-4.5 1.16-4.5 2.63z"/>
    <path id="path195" d="m145.88 624.58c0 0.76 1.04 1.37 2.34 1.37s2.38-0.61 2.38-1.37c0-0.75-1.08-1.4-2.38-1.4s-2.34 0.65-2.34 1.4z" fill="#fff"/>
    <path id="path197" d="m158.48 608.64c0 1.43 2.02 2.62 4.5 2.62 2.52 0 4.54-1.19 4.54-2.62 0-1.48-2.02-2.67-4.54-2.67-2.48 0-4.5 1.19-4.5 2.67z"/>
    <path id="path199" d="m160.28 608.35c0 0.75 1.04 1.4 2.34 1.4s2.38-0.65 2.38-1.4c0-0.76-1.08-1.37-2.38-1.37s-2.34 0.61-2.34 1.37z" fill="#fff"/>
    <path id="path201" d="m172.88 592.4c0 1.47 2.02 2.66 4.5 2.66 2.52 0 4.54-1.19 4.54-2.66 0-1.44-2.02-2.63-4.54-2.63-2.48 0-4.5 1.19-4.5 2.63z"/>
    <path id="path203" d="m174.68 592.15c0 0.75 1.04 1.36 2.34 1.36s2.38-0.61 2.38-1.36c0-0.76-1.08-1.37-2.38-1.37s-2.34 0.61-2.34 1.37z" fill="#fff"/>
    <path id="path205" d="m187.28 575.48c0 1.48 2.02 2.63 4.5 2.63 2.52 0 4.54-1.15 4.54-2.63 0-1.44-2.02-2.63-4.54-2.63-2.48 0-4.5 1.19-4.5 2.63z"/>
    <path id="path207" d="m189.08 575.23c0 0.75 1.04 1.36 2.34 1.36s2.38-0.61 2.38-1.36c0-0.76-1.08-1.37-2.38-1.37s-2.34 0.61-2.34 1.37z" fill="#fff"/>
    <path id="path209" d="m201.68 558.56c0 1.44 2.02 2.63 4.5 2.63 2.52 0 4.54-1.19 4.54-2.63 0-1.48-2.02-2.63-4.54-2.63-2.48 0-4.5 1.15-4.5 2.63z"/>
    <path id="path211" d="m203.48 558.31c0 0.75 1.04 1.36 2.34 1.36s2.38-0.61 2.38-1.36c0-0.76-1.08-1.41-2.38-1.41s-2.34 0.65-2.34 1.41z" fill="#fff"/>
    <path id="path213" d="m216.08 538.36c0 1.48 2.02 2.66 4.5 2.66 2.52 0 4.54-1.18 4.54-2.66 0-1.44-2.02-2.63-4.54-2.63-2.48 0-4.5 1.19-4.5 2.63z"/>
    <path id="path215" d="m217.88 538.11c0 0.75 1.04 1.37 2.34 1.37s2.38-0.62 2.38-1.37c0-0.76-1.08-1.37-2.38-1.37s-2.34 0.61-2.34 1.37z" fill="#fff"/>
    <path id="path217" d="m230.48 522.88c0 1.48 2.02 2.67 4.5 2.67 2.52 0 4.54-1.19 4.54-2.67 0-1.44-2.02-2.63-4.54-2.63-2.48 0-4.5 1.19-4.5 2.63z"/>
    <path id="path219" d="m232.28 522.63c0 0.76 1.04 1.37 2.34 1.37s2.38-0.61 2.38-1.37-1.08-1.37-2.38-1.37-2.34 0.61-2.34 1.37z" fill="#fff"/>
    <path id="path221" d="m244.88 506.32c0 1.44 2.02 2.63 4.5 2.63 2.52 0 4.54-1.19 4.54-2.63s-2.02-2.63-4.54-2.63c-2.48 0-4.5 1.19-4.5 2.63z"/>
    <path id="path223" d="m246.68 506.07c0 0.76 1.04 1.37 2.34 1.37s2.38-0.61 2.38-1.37-1.08-1.37-2.38-1.37-2.34 0.61-2.34 1.37z" fill="#fff"/>
    <path id="path225" d="m259.28 488.32c0 1.44 2.02 2.63 4.5 2.63 2.52 0 4.54-1.19 4.54-2.63 0-1.48-2.02-2.66-4.54-2.66-2.48 0-4.5 1.19-4.5 2.66z"/>
    <path id="path227" d="m261.08 488.07c0 0.76 1.04 1.37 2.34 1.37s2.38-0.61 2.38-1.37c0-0.79-1.08-1.4-2.38-1.4s-2.34 0.61-2.34 1.4z" fill="#fff"/>
    <path id="path229" d="m273.68 472.44c0 1.48 2.02 2.67 4.5 2.67 2.52 0 4.54-1.19 4.54-2.67 0-1.43-2.02-2.62-4.54-2.62-2.48 0-4.5 1.19-4.5 2.62z"/>
    <path id="path231" d="m275.48 472.19c0 0.76 1.04 1.37 2.34 1.37s2.38-0.61 2.38-1.37c0-0.75-1.08-1.36-2.38-1.36s-2.34 0.61-2.34 1.36z" fill="#fff"/>
    <path id="path233" d="m288.08 455.17c0 1.47 2.02 2.66 4.5 2.66 2.52 0 4.54-1.19 4.54-2.66 0-1.44-2.02-2.63-4.54-2.63-2.48 0-4.5 1.19-4.5 2.63z"/>
    <path id="path235" d="m289.88 454.91c0 0.76 1.04 1.37 2.34 1.37s2.38-0.61 2.38-1.37c0-0.75-1.08-1.36-2.38-1.36s-2.34 0.61-2.34 1.36z" fill="#fff"/>
    <path id="path237" d="m302.48 438.25c0 1.43 2.02 2.62 4.5 2.62 2.52 0 4.54-1.19 4.54-2.62 0-1.48-2.02-2.63-4.54-2.63-2.48 0-4.5 1.15-4.5 2.63z"/>
    <path id="path239" d="m304.28 437.99c0 0.76 1.04 1.37 2.34 1.37s2.38-0.61 2.38-1.37c0-0.75-1.08-1.36-2.38-1.36s-2.34 0.61-2.34 1.36z" fill="#fff"/>
    <path id="path241" d="m316.88 420.6c0 1.44 2.02 2.63 4.5 2.63 2.52 0 4.54-1.18 4.54-2.63 0-1.47-2.02-2.66-4.54-2.66-2.48 0-4.5 1.19-4.5 2.66z"/>
    <path id="path243" d="m318.68 420.35c0 0.76 1.04 1.37 2.34 1.37s2.38-0.61 2.38-1.37c0-0.79-1.08-1.4-2.38-1.4s-2.34 0.61-2.34 1.4z" fill="#fff"/>
    <path id="path245" d="m331.28 404.73c0 1.47 2.02 2.66 4.5 2.66 2.52 0 4.54-1.19 4.54-2.66 0-1.44-2.02-2.63-4.54-2.63-2.48 0-4.5 1.19-4.5 2.63z"/>
    <path id="path247" d="m333.08 404.48c0 0.76 1.04 1.36 2.34 1.36s2.38-0.6 2.38-1.36-1.08-1.37-2.38-1.37-2.34 0.61-2.34 1.37z" fill="#fff"/>
    <path id="path249" d="m345.68 385.65c0 1.48 2.02 2.66 4.5 2.66 2.52 0 4.54-1.18 4.54-2.66 0-1.44-2.02-2.63-4.54-2.63-2.48 0-4.5 1.19-4.5 2.63z"/>
    <path id="path251" d="m347.48 385.4c0 0.75 1.04 1.36 2.34 1.36s2.38-0.61 2.38-1.36c0-0.76-1.08-1.37-2.38-1.37s-2.34 0.61-2.34 1.37z" fill="#fff"/>
    <path id="path253" d="m360.08 366.57c0 1.44 2.02 2.63 4.5 2.63 2.52 0 4.54-1.19 4.54-2.63 0-1.48-2.02-2.63-4.54-2.63-2.48 0-4.5 1.15-4.5 2.63z"/>
    <path id="path255" d="m361.88 366.32c0 0.75 1.04 1.36 2.34 1.36s2.38-0.61 2.38-1.36c0-0.76-1.08-1.37-2.38-1.37s-2.34 0.61-2.34 1.37z" fill="#fff"/>
    <path id="path257" d="m374.48 350.01c0 1.44 2.02 2.63 4.5 2.63 2.52 0 4.54-1.19 4.54-2.63 0-1.48-2.02-2.66-4.54-2.66-2.48 0-4.5 1.18-4.5 2.66z"/>
    <path id="path259" d="m376.28 349.72c0 0.79 1.04 1.41 2.34 1.41s2.38-0.62 2.38-1.41c0-0.75-1.08-1.37-2.38-1.37s-2.34 0.62-2.34 1.37z" fill="#fff"/>
    <path id="path261" d="m388.88 333.05c0 1.48 2.02 2.67 4.5 2.67 2.52 0 4.54-1.19 4.54-2.67 0-1.44-2.02-2.62-4.54-2.62-2.48 0-4.5 1.18-4.5 2.62z"/>
    <path id="path263" d="m390.68 332.8c0 0.76 1.04 1.37 2.34 1.37s2.38-0.61 2.38-1.37c0-0.75-1.08-1.37-2.38-1.37s-2.34 0.62-2.34 1.37z" fill="#fff"/>
    <path id="path265" d="m403.28 316.13c0 1.48 2.02 2.67 4.5 2.67 2.52 0 4.54-1.19 4.54-2.67 0-1.44-2.02-2.62-4.54-2.62-2.48 0-4.5 1.18-4.5 2.62z"/>
    <path id="path267" d="m405.08 315.88c0 0.76 1.04 1.37 2.34 1.37s2.38-0.61 2.38-1.37c0-0.75-1.08-1.37-2.38-1.37s-2.34 0.62-2.34 1.37z" fill="#fff"/>
    <path id="path269" d="m155.06 671.09c-0.5 1.16-1.19 2.24-2.05 3.64-0.87 1.3-1.98 2.74-3.21 4.32v14.54c2.63 0.36 4.61 1.63 6.38 4.07 1.62 2.38 2.88 5.8 3.63 10.26 18.61-1.73 33.77-3.6 46.15-5.47 12.21-1.94 21.68-3.13 27.29-5.9 5.51-2.77 7.49-6.34 5.94-10.69-4.25-3.93-8.6-6.56-13.21-8.43-4.57-1.76-10.22-0.83-14.33-2.48-4.32-1.77-7.77-4.54-10.91-8.17-15.22 1.44-30.45 2.87-45.68 4.31z" fill="#fff"/>
    <path id="path271" d="m205.96 664.47c0.26 2.2 1.08 3.64 4.58 5.01 3.42 1.14 11.73 0.64 16.34 2.52 4.43 1.76 6.91 6.91 10.94 8.64 4.11 1.58 9.72 2.48 13.4 1.58 3.56-1.01 7.56-3.64 7.95-7.06 0.22-3.52-1.87-10.72-6.12-13.39-4.25-2.7-13.35-1.62-19.11-2.73-6.09-1.3-11.49-3.89-15.92-4.32-4.39-0.4-7.77 0.1-9.75 1.8-2.02 1.65-2.74 5.65-2.31 7.95z" fill="#fff"/>
    <path id="path273" d="m233.04 652.88c3.56-5.9 7.38-9.04 11.59-9.54 4.14-0.47 8.24 4.78 13.43 6.59 5.22 1.58 13.14 0.93 17.49 3.2 4.14 2.3 6.77 6.41 7.74 10.23 0.94 3.56 1.44 9.82-1.84 11.59-3.38 1.76-9.39 1.33-18.18-1.15-0.1-6.81-2.12-11.56-5.9-14.55-3.92-2.95-13.03-2.19-17.06-3.17-4.11-1.15-6.48-2.09-7.27-3.2z" fill="#fff"/>
    <path id="path275" d="m260.54 643.81c0.83-1.69 2.27-2.81 4.32-3.21 1.98-0.46 4.03-1.01 7.96 0.47 3.85 1.26 10.22 6.16 15.22 7.74 4.86 1.55 11.38-0.39 14.12 1.8 2.62 2.16 2.48 7.89 1.8 10.91-0.83 2.81-3.39 5.58-6.12 6.37-2.77 0.79-5.98 0.15-10.01-1.8-0.76-5.87-2.77-10.01-5.9-12.96-3.28-2.99-9.61-2.81-13.18-4.32-3.57-1.58-6.3-3.21-8.21-5z" fill="#fff"/>
  </g>
  <metadata>
    <rdf:RDF>
      <cc:Work>
        <dc:format>image/svg+xml</dc:format>
        <dc:type rdf:resource="http://purl.org/dc/dcmitype/StillImage"/>
        <cc:license rdf:resource="http://creativecommons.org/licenses/publicdomain/"/>
        <dc:publisher>
          <cc:Agent rdf:about="http://openclipart.org/">
            <dc:title>Openclipart</dc:title>
          </cc:Agent>
        </dc:publisher>
        <dc:title>Harp</dc:title>
        <dc:date>2006-10-17T10:43:34</dc:date>
        <dc:description>clip art, clipart, colouring book, harp, instrument, music, </dc:description>
        <dc:source>http://openclipart.org/detail/8466/harp-by-gerald_g-8466</dc:source>
        <dc:creator>
          <cc:Agent>
            <dc:title>Gerald_G</dc:title>
          </cc:Agent>
        </dc:creator>
        <dc:subject>
          <rdf:Bag>
            <rdf:li>clip art</rdf:li>
            <rdf:li>clipart</rdf:li>
            <rdf:li>colouring book</rdf:li>
            <rdf:li>harp</rdf:li>
            <rdf:li>instrument</rdf:li>
            <rdf:li>music</rdf:li>
          </rdf:Bag>
        </dc:subject>
      </cc:Work>
      <cc:License rdf:about="http://creativecommons.org/licenses/publicdomain/">
        <cc:permits rdf:resource="http://creativecommons.org/ns#Reproduction"/>
        <cc:permits rdf:resource="http://creativecommons.org/ns#Distribution"/>
        <cc:permits rdf:resource="http://creativecommons.org/ns#DerivativeWorks"/>
      </cc:License>
    </rdf:RDF>
  </metadata>
</svg>
